<svg width="700" height="400" viewBox="0 0 700 400" fill="none" xmlns="http://www.w3.org/2000/svg">
<rect width="700" height="400" rx="10" fill="#233345"/>
<path d="M299.676 15H35.3242C28.5177 15 23 20.5849 23 27.4743V365.526C23 372.415 28.5177 378 35.3242 378H299.676C306.482 378 312 372.415 312 365.526V27.4743C312 20.5849 306.482 15 299.676 15Z" fill="#111B26"/>
<path d="M661.676 18H397.324C390.518 18 385 23.5849 385 30.4743V368.526C385 375.415 390.518 381 397.324 381H661.676C668.482 381 674 375.415 674 368.526V30.4743C674 23.5849 668.482 18 661.676 18Z" fill="#111B26"/>
<mask id="mask0_2301_6147" style="mask-type:luminance" maskUnits="userSpaceOnUse" x="55" y="56" width="213" height="52">
<path d="M55 56H268V108H55V56Z" fill="white"/>
</mask>
<g mask="url(#mask0_2301_6147)">
<path d="M139.305 97.6925H145.997L133.803 62.9249H126.047L113.854 97.6925H120.545L123.403 89.1297H136.43L139.305 97.6925ZM125.107 84.0561L129.792 70.0637H130.058L134.744 84.0561H125.107ZM152.617 82.4184V97.6925H146.494V71.6302H152.351V76.0631H152.652C153.256 74.6032 154.214 73.4461 155.528 72.5915C156.841 71.7371 158.474 71.31 160.409 71.31C162.201 71.31 163.763 71.7016 165.112 72.467C166.443 73.2325 167.49 74.354 168.218 75.8137C168.963 77.2737 169.318 79.036 169.301 81.1188V97.6925H163.177V82.0446C163.177 80.2999 162.734 78.947 161.828 77.9501C160.923 76.971 159.699 76.4726 158.119 76.4726C157.054 76.4726 156.096 76.7038 155.261 77.1845C154.427 77.6474 153.788 78.3239 153.309 79.214C152.865 80.0862 152.617 81.1543 152.617 82.4184ZM182.807 108C180.606 108 178.725 107.697 177.145 107.11C175.566 106.522 174.306 105.721 173.347 104.724C172.389 103.728 171.714 102.624 171.359 101.413L176.879 100.078C177.128 100.594 177.483 101.093 177.962 101.591C178.441 102.09 179.08 102.517 179.879 102.855C180.677 103.193 181.707 103.354 182.931 103.354C184.671 103.354 186.108 102.926 187.244 102.09C188.38 101.253 188.948 99.8645 188.948 97.9418V93.0105H188.646C188.327 93.6515 187.865 94.2925 187.262 94.9689C186.659 95.6453 185.86 96.1971 184.884 96.6422C183.89 97.0874 182.665 97.3187 181.174 97.3187C179.186 97.3187 177.376 96.8381 175.743 95.8947C174.128 94.951 172.832 93.5268 171.892 91.6576C170.933 89.7706 170.454 87.4208 170.454 84.5724C170.454 81.7241 170.933 79.2851 171.892 77.3091C172.85 75.3331 174.128 73.8377 175.761 72.8054C177.394 71.7728 179.204 71.2743 181.192 71.2743C182.718 71.2743 183.978 71.5234 184.955 72.0397C185.949 72.556 186.729 73.1789 187.315 73.8913C187.901 74.6032 188.345 75.2798 188.646 75.9206H188.984V71.6126H195.018V98.1019C195.018 100.327 194.486 102.179 193.421 103.639C192.356 105.098 190.918 106.184 189.072 106.914C187.227 107.644 185.132 108 182.807 108ZM182.86 92.4944C184.156 92.4944 185.256 92.1739 186.179 91.5508C187.085 90.9101 187.794 90.0021 188.256 88.827C188.735 87.6343 188.966 86.2103 188.966 84.5545C188.966 82.899 188.735 81.4748 188.256 80.2466C187.794 79.0182 187.102 78.0569 186.197 77.3626C185.292 76.686 184.174 76.33 182.86 76.33C181.547 76.33 180.358 76.686 179.435 77.3983C178.53 78.1102 177.837 79.0893 177.376 80.3177C176.915 81.5638 176.684 82.9702 176.684 84.5369C176.684 86.1034 176.915 87.5277 177.394 88.7204C177.855 89.9131 178.547 90.8387 179.47 91.4975C180.376 92.1561 181.511 92.4944 182.86 92.4944ZM213.565 86.7266V71.6302H219.688V97.6925H213.743V93.064H213.477C212.891 94.5237 211.932 95.7165 210.583 96.6422C209.252 97.568 207.602 98.0308 205.649 98.0308C203.946 98.0308 202.437 97.657 201.141 96.8914C199.846 96.1259 198.816 95.0222 198.089 93.5447C197.361 92.085 196.988 90.3048 196.988 88.2219V71.6302H203.129V87.2783C203.129 88.9338 203.573 90.2512 204.478 91.2127C205.383 92.1918 206.572 92.6724 208.028 92.6724C208.933 92.6724 209.803 92.4587 210.655 92.0136C211.506 91.5687 212.199 90.9101 212.749 90.0376C213.299 89.1475 213.565 88.0437 213.565 86.7266ZM227.817 62.9251V97.6925H221.694V62.9249H227.817V62.9251ZM237.544 98.2088C235.893 98.2088 234.42 97.9061 233.106 97.3187C231.793 96.7312 230.746 95.8411 230 94.6841C229.237 93.5268 228.864 92.085 228.864 90.3759C228.864 88.8984 229.131 87.6878 229.681 86.7266C230.231 85.7651 230.959 84.9997 231.9 84.4122C232.84 83.8424 233.887 83.3975 235.077 83.0948C236.248 82.7922 237.472 82.5785 238.733 82.4362C240.259 82.2759 241.484 82.1336 242.442 82.0089C243.383 81.8843 244.075 81.6706 244.519 81.4036C244.945 81.1188 245.175 80.6915 245.175 80.1041V79.9972C245.175 78.7155 244.803 77.7364 244.039 77.0243C243.276 76.33 242.194 75.9739 240.774 75.9739C239.265 75.9739 238.094 76.2944 237.206 76.953C236.337 77.6118 235.751 78.3772 235.431 79.2851L229.716 78.4662C230.16 76.8818 230.906 75.5646 231.953 74.4785C232.982 73.4104 234.26 72.6095 235.751 72.0754C237.259 71.5413 238.91 71.2743 240.721 71.2743C241.981 71.2743 243.223 71.4166 244.465 71.7192C245.708 72.0219 246.844 72.5025 247.873 73.1791C248.903 73.8556 249.719 74.7635 250.358 75.9206C250.979 77.0776 251.299 78.5197 251.299 80.2466V97.6925H245.406V94.1143H245.211C244.838 94.8442 244.324 95.5207 243.649 96.1438C242.975 96.7669 242.14 97.2832 241.129 97.657C240.082 98.0308 238.91 98.2088 237.544 98.2088ZM239.141 93.7048C240.366 93.7048 241.431 93.4557 242.336 92.975C243.241 92.4766 243.933 91.8356 244.43 91.0167C244.927 90.1979 245.158 89.3079 245.158 88.3464V85.2666C244.962 85.427 244.643 85.5693 244.182 85.7118C243.72 85.8541 243.223 85.9609 242.655 86.0677C242.087 86.1746 241.537 86.2636 240.987 86.3347C240.436 86.4061 239.957 86.4772 239.549 86.5307C238.644 86.6552 237.81 86.851 237.1 87.1358C236.372 87.4208 235.804 87.8125 235.396 88.3109C234.97 88.8094 234.775 89.468 234.775 90.2512C234.775 91.3907 235.183 92.2451 236.017 92.8147C236.816 93.42 237.863 93.7048 239.141 93.7048ZM253.162 97.6925V71.6302H259.108V75.9741H259.374C259.854 74.4609 260.67 73.3036 261.823 72.4847C262.977 71.6659 264.308 71.2565 265.799 71.2565C266.136 71.2565 266.527 71.2743 266.935 71.2919C267.361 71.3276 267.716 71.3633 268 71.4166V77.06C267.734 76.9708 267.326 76.8818 266.775 76.8107C266.24 76.7409 265.7 76.7053 265.16 76.704C264.042 76.704 263.048 76.9532 262.161 77.4338C261.273 77.9144 260.581 78.573 260.067 79.4276C259.552 80.282 259.303 81.2611 259.303 82.3649V97.6925H253.162ZM103.169 64.5271L101.43 91.9246L84.7998 56L103.169 64.5271ZM91.6508 99.9535L79.0848 107.146L66.5187 99.9535L69.0745 93.7405H89.095L91.6508 99.9535ZM79.0848 69.6364L85.6694 85.694H72.5001L79.0848 69.6364ZM56.7216 91.9246L55 64.5271L73.3696 56L56.7216 91.9246Z" fill="url(#paint0_linear_2301_6147)"/>
<path d="M139.305 97.6925H145.997L133.803 62.9249H126.047L113.854 97.6925H120.545L123.403 89.1297H136.43L139.305 97.6925ZM125.107 84.0561L129.792 70.0637H130.058L134.744 84.0561H125.107ZM152.617 82.4184V97.6925H146.494V71.6302H152.351V76.0631H152.652C153.256 74.6032 154.214 73.4461 155.528 72.5915C156.841 71.7371 158.474 71.31 160.409 71.31C162.201 71.31 163.763 71.7016 165.112 72.467C166.443 73.2325 167.49 74.354 168.218 75.8137C168.963 77.2737 169.318 79.036 169.301 81.1188V97.6925H163.177V82.0446C163.177 80.2999 162.734 78.947 161.828 77.9501C160.923 76.971 159.699 76.4726 158.119 76.4726C157.054 76.4726 156.096 76.7038 155.261 77.1845C154.427 77.6474 153.788 78.3239 153.309 79.214C152.865 80.0862 152.617 81.1543 152.617 82.4184ZM182.807 108C180.606 108 178.725 107.697 177.145 107.11C175.566 106.522 174.306 105.721 173.347 104.724C172.389 103.728 171.714 102.624 171.359 101.413L176.879 100.078C177.128 100.594 177.483 101.093 177.962 101.591C178.441 102.09 179.08 102.517 179.879 102.855C180.677 103.193 181.707 103.354 182.931 103.354C184.671 103.354 186.108 102.926 187.244 102.09C188.38 101.253 188.948 99.8645 188.948 97.9418V93.0105H188.646C188.327 93.6515 187.865 94.2925 187.262 94.9689C186.659 95.6453 185.86 96.1971 184.884 96.6422C183.89 97.0874 182.665 97.3187 181.174 97.3187C179.186 97.3187 177.376 96.8381 175.743 95.8947C174.128 94.951 172.832 93.5268 171.892 91.6576C170.933 89.7706 170.454 87.4208 170.454 84.5724C170.454 81.7241 170.933 79.2851 171.892 77.3091C172.85 75.3331 174.128 73.8377 175.761 72.8054C177.394 71.7728 179.204 71.2743 181.192 71.2743C182.718 71.2743 183.978 71.5234 184.955 72.0397C185.949 72.556 186.729 73.1789 187.315 73.8913C187.901 74.6032 188.345 75.2798 188.646 75.9206H188.984V71.6126H195.018V98.1019C195.018 100.327 194.486 102.179 193.421 103.639C192.356 105.098 190.918 106.184 189.072 106.914C187.227 107.644 185.132 108 182.807 108ZM182.86 92.4944C184.156 92.4944 185.256 92.1739 186.179 91.5508C187.085 90.9101 187.794 90.0021 188.256 88.827C188.735 87.6343 188.966 86.2103 188.966 84.5545C188.966 82.899 188.735 81.4748 188.256 80.2466C187.794 79.0182 187.102 78.0569 186.197 77.3626C185.292 76.686 184.174 76.33 182.86 76.33C181.547 76.33 180.358 76.686 179.435 77.3983C178.53 78.1102 177.837 79.0893 177.376 80.3177C176.915 81.5638 176.684 82.9702 176.684 84.5369C176.684 86.1034 176.915 87.5277 177.394 88.7204C177.855 89.9131 178.547 90.8387 179.47 91.4975C180.376 92.1561 181.511 92.4944 182.86 92.4944ZM213.565 86.7266V71.6302H219.688V97.6925H213.743V93.064H213.477C212.891 94.5237 211.932 95.7165 210.583 96.6422C209.252 97.568 207.602 98.0308 205.649 98.0308C203.946 98.0308 202.437 97.657 201.141 96.8914C199.846 96.1259 198.816 95.0222 198.089 93.5447C197.361 92.085 196.988 90.3048 196.988 88.2219V71.6302H203.129V87.2783C203.129 88.9338 203.573 90.2512 204.478 91.2127C205.383 92.1918 206.572 92.6724 208.028 92.6724C208.933 92.6724 209.803 92.4587 210.655 92.0136C211.506 91.5687 212.199 90.9101 212.749 90.0376C213.299 89.1475 213.565 88.0437 213.565 86.7266ZM227.817 62.9251V97.6925H221.694V62.9249H227.817V62.9251ZM237.544 98.2088C235.893 98.2088 234.42 97.9061 233.106 97.3187C231.793 96.7312 230.746 95.8411 230 94.6841C229.237 93.5268 228.864 92.085 228.864 90.3759C228.864 88.8984 229.131 87.6878 229.681 86.7266C230.231 85.7651 230.959 84.9997 231.9 84.4122C232.84 83.8424 233.887 83.3975 235.077 83.0948C236.248 82.7922 237.472 82.5785 238.733 82.4362C240.259 82.2759 241.484 82.1336 242.442 82.0089C243.383 81.8843 244.075 81.6706 244.519 81.4036C244.945 81.1188 245.175 80.6915 245.175 80.1041V79.9972C245.175 78.7155 244.803 77.7364 244.039 77.0243C243.276 76.33 242.194 75.9739 240.774 75.9739C239.265 75.9739 238.094 76.2944 237.206 76.953C236.337 77.6118 235.751 78.3772 235.431 79.2851L229.716 78.4662C230.16 76.8818 230.906 75.5646 231.953 74.4785C232.982 73.4104 234.26 72.6095 235.751 72.0754C237.259 71.5413 238.91 71.2743 240.721 71.2743C241.981 71.2743 243.223 71.4166 244.465 71.7192C245.708 72.0219 246.844 72.5025 247.873 73.1791C248.903 73.8556 249.719 74.7635 250.358 75.9206C250.979 77.0776 251.299 78.5197 251.299 80.2466V97.6925H245.406V94.1143H245.211C244.838 94.8442 244.324 95.5207 243.649 96.1438C242.975 96.7669 242.14 97.2832 241.129 97.657C240.082 98.0308 238.91 98.2088 237.544 98.2088ZM239.141 93.7048C240.366 93.7048 241.431 93.4557 242.336 92.975C243.241 92.4766 243.933 91.8356 244.43 91.0167C244.927 90.1979 245.158 89.3079 245.158 88.3464V85.2666C244.962 85.427 244.643 85.5693 244.182 85.7118C243.72 85.8541 243.223 85.9609 242.655 86.0677C242.087 86.1746 241.537 86.2636 240.987 86.3347C240.436 86.4061 239.957 86.4772 239.549 86.5307C238.644 86.6552 237.81 86.851 237.1 87.1358C236.372 87.4208 235.804 87.8125 235.396 88.3109C234.97 88.8094 234.775 89.468 234.775 90.2512C234.775 91.3907 235.183 92.2451 236.017 92.8147C236.816 93.42 237.863 93.7048 239.141 93.7048ZM253.162 97.6925V71.6302H259.108V75.9741H259.374C259.854 74.4609 260.67 73.3036 261.823 72.4847C262.977 71.6659 264.308 71.2565 265.799 71.2565C266.136 71.2565 266.527 71.2743 266.935 71.2919C267.361 71.3276 267.716 71.3633 268 71.4166V77.06C267.734 76.9708 267.326 76.8818 266.775 76.8107C266.24 76.7409 265.7 76.7053 265.16 76.704C264.042 76.704 263.048 76.9532 262.161 77.4338C261.273 77.9144 260.581 78.573 260.067 79.4276C259.552 80.282 259.303 81.2611 259.303 82.3649V97.6925H253.162ZM103.169 64.5271L101.43 91.9246L84.7998 56L103.169 64.5271ZM91.6508 99.9535L79.0848 107.146L66.5187 99.9535L69.0745 93.7405H89.095L91.6508 99.9535ZM79.0848 69.6364L85.6694 85.694H72.5001L79.0848 69.6364ZM56.7216 91.9246L55 64.5271L73.3696 56L56.7216 91.9246Z" fill="url(#paint1_radial_2301_6147)"/>
</g>
<path d="M576 30H478V128H576V30Z" fill="#512BD4"/>
<path d="M495.467 92.611C494.774 92.611 494.185 92.3802 493.7 91.9183C493.215 91.4446 492.972 90.8822 492.972 90.231C492.972 89.5678 493.215 88.9996 493.7 88.5259C494.185 88.0523 494.774 87.8154 495.467 87.8154C496.171 87.8154 496.766 88.0523 497.251 88.5259C497.748 88.9996 497.996 89.5678 497.996 90.231C497.996 90.8822 497.748 91.4446 497.251 91.9183C496.766 92.3802 496.171 92.611 495.467 92.611Z" fill="white"/>
<path d="M523.167 92.2203H518.663L506.797 73.4995C506.497 73.0259 506.248 72.5344 506.052 72.0252H505.948C506.04 72.57 506.087 73.7364 506.087 75.5242V92.2203H502.102V66.75H506.901L518.369 85.0268C518.854 85.7848 519.166 86.3057 519.304 86.5898H519.374C519.258 85.915 519.2 84.7723 519.2 83.1618V66.75H523.167V92.2203Z" fill="white"/>
<path d="M542.57 92.2203H528.625V66.75H542.016V70.338H532.748V77.5491H541.288V81.1193H532.748V88.6502H542.57V92.2203Z" fill="white"/>
<path d="M562.389 70.338H555.252V92.2203H551.129V70.338H544.009V66.75H562.389V70.338Z" fill="white"/>
<rect x="408" y="143" width="242" height="213" rx="10" fill="url(#paint2_linear_2301_6147)"/>
<rect x="46" y="143" width="242" height="213" rx="10" fill="url(#paint3_linear_2301_6147)"/>
<path d="M450.51 218L446.33 203.106L448.398 202.446L451.874 215.778L455.152 204.206H457.77L461.026 215.778L464.48 202.512L466.416 203.106L462.258 218H459.662L456.406 206.428L453.106 218H450.51ZM472.424 218.264C470.781 218.264 469.476 217.743 468.508 216.702C467.555 215.646 467.078 214.172 467.078 212.28C467.078 211.136 467.291 210.117 467.716 209.222C468.156 208.313 468.765 207.601 469.542 207.088C470.319 206.56 471.221 206.296 472.248 206.296C473.348 206.296 474.257 206.538 474.976 207.022C475.709 207.491 476.259 208.129 476.626 208.936C476.993 209.743 477.176 210.63 477.176 211.598C477.176 212.111 477.154 212.61 477.11 213.094H469.102C469.234 214.165 469.608 215.001 470.224 215.602C470.84 216.203 471.654 216.504 472.666 216.504C473.326 216.504 473.92 216.438 474.448 216.306C474.976 216.159 475.482 215.976 475.966 215.756L476.428 217.45C475.9 217.685 475.306 217.875 474.646 218.022C473.986 218.183 473.245 218.264 472.424 218.264ZM469.08 211.488H475.35C475.35 210.373 475.071 209.515 474.514 208.914C473.957 208.313 473.187 208.012 472.204 208.012C471.353 208.012 470.649 208.313 470.092 208.914C469.535 209.501 469.197 210.359 469.08 211.488ZM484.963 218.264C484.303 218.264 483.679 218.147 483.093 217.912C482.521 217.663 482.044 217.377 481.663 217.054V218H479.815V201.72H481.795V207.748C482.088 207.411 482.513 207.088 483.071 206.78C483.643 206.457 484.317 206.296 485.095 206.296C485.975 206.296 486.796 206.531 487.559 207C488.336 207.455 488.959 208.122 489.429 209.002C489.898 209.867 490.133 210.923 490.133 212.17C490.133 213.079 489.986 213.908 489.693 214.656C489.399 215.404 489.003 216.049 488.505 216.592C488.021 217.12 487.471 217.531 486.855 217.824C486.239 218.117 485.608 218.264 484.963 218.264ZM484.435 216.504C485.153 216.504 485.784 216.328 486.327 215.976C486.884 215.624 487.317 215.125 487.625 214.48C487.947 213.835 488.109 213.087 488.109 212.236C488.109 211.356 487.947 210.601 487.625 209.97C487.317 209.339 486.899 208.855 486.371 208.518C485.857 208.181 485.285 208.012 484.655 208.012C484.024 208.012 483.452 208.173 482.939 208.496C482.44 208.804 482.059 209.141 481.795 209.508V215.624C482.132 215.888 482.528 216.101 482.983 216.262C483.437 216.423 483.921 216.504 484.435 216.504ZM510.275 218.22L508.559 213.82H501.431L499.715 218.176L497.933 217.45L503.961 202.6H506.249L512.189 217.45L510.275 218.22ZM502.091 212.06H507.877L504.995 204.668L502.091 212.06ZM514.388 218V202.644C514.99 202.571 515.65 202.519 516.368 202.49C517.102 202.446 517.857 202.424 518.634 202.424C519.91 202.424 520.996 202.629 521.89 203.04C522.785 203.436 523.467 203.986 523.936 204.69C524.406 205.394 524.64 206.201 524.64 207.11C524.64 208.21 524.369 209.141 523.826 209.904C523.284 210.667 522.528 211.253 521.56 211.664C520.592 212.06 519.47 212.258 518.194 212.258C517.578 212.258 517.006 212.236 516.478 212.192V218H514.388ZM518.458 210.52C519.764 210.52 520.776 210.227 521.494 209.64C522.213 209.053 522.572 208.269 522.572 207.286C522.572 206.333 522.228 205.577 521.538 205.02C520.849 204.463 519.866 204.184 518.59 204.184C518.194 204.184 517.82 204.191 517.468 204.206C517.116 204.221 516.786 204.243 516.478 204.272V210.41C516.713 210.439 516.999 210.469 517.336 210.498C517.674 210.513 518.048 210.52 518.458 210.52ZM527.171 218V202.6H529.261V218H527.171ZM449.3 248.264C448.904 248.264 448.559 248.117 448.266 247.824C447.973 247.531 447.826 247.186 447.826 246.79C447.826 246.335 447.958 245.976 448.222 245.712C448.486 245.448 448.845 245.316 449.3 245.316C449.681 245.316 450.019 245.463 450.312 245.756C450.62 246.049 450.774 246.394 450.774 246.79C450.774 247.23 450.635 247.589 450.356 247.868C450.077 248.132 449.725 248.264 449.3 248.264ZM454.576 248V232.6H457.348L464.146 245.404V232.6H466.126V248H463.398L456.556 235.284V248H454.576ZM470.087 248V232.6H479.327V234.404H472.177V239.09H478.337V240.85H472.177V246.196H479.327V248H470.087ZM485.261 248V234.448H480.531V232.6H492.081V234.448H487.351V248H485.261ZM502.063 248V246.24H505.209V235.13L502.261 237.352L501.183 235.878L505.737 232.6H507.189V246.24H509.807V248H502.063ZM518.664 248.264C516.948 248.264 515.643 247.567 514.748 246.174C513.853 244.766 513.406 242.801 513.406 240.278C513.406 237.741 513.861 235.783 514.77 234.404C515.694 233.025 517.007 232.336 518.708 232.336C520.424 232.336 521.729 233.033 522.624 234.426C523.519 235.819 523.966 237.785 523.966 240.322C523.966 242.859 523.504 244.817 522.58 246.196C521.671 247.575 520.365 248.264 518.664 248.264ZM518.686 246.46C519.346 246.46 519.911 246.269 520.38 245.888C520.864 245.492 521.231 244.847 521.48 243.952C521.744 243.057 521.876 241.855 521.876 240.344C521.876 238.32 521.59 236.78 521.018 235.724C520.461 234.668 519.683 234.14 518.686 234.14C518.026 234.14 517.454 234.338 516.97 234.734C516.501 235.115 516.134 235.753 515.87 236.648C515.621 237.528 515.496 238.731 515.496 240.256C515.496 242.28 515.775 243.82 516.332 244.876C516.904 245.932 517.689 246.46 518.686 246.46ZM539.771 248.264C538.436 248.264 537.256 247.949 536.229 247.318C535.202 246.673 534.403 245.763 533.831 244.59C533.259 243.402 532.973 241.994 532.973 240.366C532.973 238.797 533.259 237.411 533.831 236.208C534.418 234.991 535.239 234.045 536.295 233.37C537.366 232.681 538.612 232.336 540.035 232.336C540.768 232.336 541.436 232.409 542.037 232.556C542.638 232.688 543.203 232.879 543.731 233.128L543.093 234.888C542.638 234.668 542.169 234.492 541.685 234.36C541.216 234.228 540.658 234.162 540.013 234.162C539.074 234.162 538.231 234.404 537.483 234.888C536.75 235.372 536.17 236.069 535.745 236.978C535.32 237.887 535.107 238.987 535.107 240.278C535.107 241.51 535.312 242.588 535.723 243.512C536.148 244.436 536.728 245.155 537.461 245.668C538.209 246.181 539.06 246.438 540.013 246.438C540.732 246.438 541.355 246.35 541.883 246.174C542.411 245.998 542.924 245.771 543.423 245.492L544.061 247.23C543.518 247.523 542.895 247.773 542.191 247.978C541.502 248.169 540.695 248.264 539.771 248.264ZM550.848 248.264C549.762 248.264 548.787 248.015 547.922 247.516C547.056 247.003 546.374 246.299 545.876 245.404C545.392 244.495 545.15 243.453 545.15 242.28C545.15 241.048 545.399 239.985 545.898 239.09C546.396 238.195 547.078 237.506 547.944 237.022C548.809 236.538 549.777 236.296 550.848 236.296C551.918 236.296 552.879 236.538 553.73 237.022C554.595 237.506 555.277 238.195 555.776 239.09C556.289 239.97 556.546 241.019 556.546 242.236C556.546 243.453 556.296 244.517 555.798 245.426C555.299 246.321 554.617 247.017 553.752 247.516C552.901 248.015 551.933 248.264 550.848 248.264ZM550.848 246.504C552.006 246.504 552.908 246.115 553.554 245.338C554.199 244.546 554.522 243.527 554.522 242.28C554.522 241.517 554.36 240.821 554.038 240.19C553.715 239.545 553.275 239.031 552.718 238.65C552.175 238.254 551.552 238.056 550.848 238.056C549.689 238.056 548.787 238.437 548.142 239.2C547.496 239.963 547.174 240.975 547.174 242.236C547.174 242.999 547.335 243.71 547.658 244.37C547.98 245.015 548.413 245.536 548.956 245.932C549.513 246.313 550.144 246.504 550.848 246.504ZM559.178 248V236.56H561.092V239.046C561.283 238.562 561.539 238.115 561.862 237.704C562.185 237.279 562.588 236.941 563.072 236.692C563.556 236.428 564.121 236.296 564.766 236.296C564.986 236.296 565.206 236.311 565.426 236.34C565.646 236.355 565.829 236.384 565.976 236.428L565.382 238.474C565.103 238.357 564.773 238.298 564.392 238.298C563.849 238.298 563.329 238.452 562.83 238.76C562.346 239.068 561.943 239.545 561.62 240.19C561.312 240.835 561.158 241.657 561.158 242.654V248H559.178ZM571.875 248.264C570.232 248.264 568.927 247.743 567.959 246.702C567.006 245.646 566.529 244.172 566.529 242.28C566.529 241.136 566.742 240.117 567.167 239.222C567.607 238.313 568.216 237.601 568.993 237.088C569.77 236.56 570.672 236.296 571.699 236.296C572.799 236.296 573.708 236.538 574.427 237.022C575.16 237.491 575.71 238.129 576.077 238.936C576.444 239.743 576.627 240.63 576.627 241.598C576.627 242.111 576.605 242.61 576.561 243.094H568.553C568.685 244.165 569.059 245.001 569.675 245.602C570.291 246.203 571.105 246.504 572.117 246.504C572.777 246.504 573.371 246.438 573.899 246.306C574.427 246.159 574.933 245.976 575.417 245.756L575.879 247.45C575.351 247.685 574.757 247.875 574.097 248.022C573.437 248.183 572.696 248.264 571.875 248.264ZM568.531 241.488H574.801C574.801 240.373 574.522 239.515 573.965 238.914C573.408 238.313 572.638 238.012 571.655 238.012C570.804 238.012 570.1 238.313 569.543 238.914C568.986 239.501 568.648 240.359 568.531 241.488ZM447.98 278V262.6H450.906L455.174 272.346L459.376 262.6H462.368V278H460.278V265.262L456.164 274.524H454.096L449.96 265.262V278H447.98ZM466.108 278V266.56H468.088V278H466.108ZM467.098 264.602C466.716 264.602 466.386 264.463 466.108 264.184C465.844 263.905 465.712 263.583 465.712 263.216C465.712 262.791 465.836 262.453 466.086 262.204C466.335 261.955 466.672 261.83 467.098 261.83C467.479 261.83 467.802 261.969 468.066 262.248C468.344 262.512 468.484 262.835 468.484 263.216C468.484 263.627 468.359 263.964 468.11 264.228C467.86 264.477 467.523 264.602 467.098 264.602ZM471.608 278V266.56H473.522V268.474C473.932 267.858 474.453 267.345 475.084 266.934C475.729 266.509 476.492 266.296 477.372 266.296C478.662 266.296 479.623 266.685 480.254 267.462C480.899 268.239 481.222 269.266 481.222 270.542V278H479.242V270.762C479.242 269.941 479.044 269.281 478.648 268.782C478.266 268.283 477.731 268.034 477.042 268.034C476.367 268.034 475.729 268.276 475.128 268.76C474.526 269.229 474.013 269.787 473.588 270.432V278H471.608ZM484.627 278V266.56H486.607V278H484.627ZM485.617 264.602C485.236 264.602 484.906 264.463 484.627 264.184C484.363 263.905 484.231 263.583 484.231 263.216C484.231 262.791 484.356 262.453 484.605 262.204C484.855 261.955 485.192 261.83 485.617 261.83C485.999 261.83 486.321 261.969 486.585 262.248C486.864 262.512 487.003 262.835 487.003 263.216C487.003 263.627 486.879 263.964 486.629 264.228C486.38 264.477 486.043 264.602 485.617 264.602ZM490.127 278V266.56H492.041V268.474C492.452 267.858 492.973 267.345 493.603 266.934C494.234 266.509 494.953 266.296 495.759 266.296C496.669 266.296 497.409 266.516 497.981 266.956C498.568 267.396 498.979 267.983 499.213 268.716C499.668 268.041 500.203 267.469 500.819 267C501.45 266.531 502.227 266.296 503.151 266.296C504.398 266.296 505.322 266.692 505.923 267.484C506.539 268.261 506.847 269.281 506.847 270.542V278H504.867V270.696C504.867 269.904 504.684 269.266 504.317 268.782C503.951 268.283 503.445 268.034 502.799 268.034C502.139 268.034 501.523 268.283 500.951 268.782C500.394 269.266 499.903 269.838 499.477 270.498V278H497.497V270.696C497.497 269.904 497.314 269.266 496.947 268.782C496.581 268.283 496.075 268.034 495.429 268.034C494.784 268.034 494.175 268.276 493.603 268.76C493.031 269.229 492.533 269.787 492.107 270.432V278H490.127ZM514.636 278.264C513.683 278.264 512.817 278.022 512.04 277.538C511.263 277.054 510.639 276.372 510.17 275.492C509.715 274.597 509.488 273.549 509.488 272.346C509.488 271.202 509.715 270.175 510.17 269.266C510.639 268.357 511.277 267.638 512.084 267.11C512.905 266.567 513.844 266.296 514.9 266.296C515.56 266.296 516.154 266.413 516.682 266.648C517.225 266.868 517.694 267.147 518.09 267.484V266.56H519.894V275.228C519.894 275.785 520.026 276.152 520.29 276.328C520.569 276.489 520.869 276.57 521.192 276.57L520.774 278.11C519.366 278.11 518.515 277.538 518.222 276.394C517.885 276.863 517.423 277.296 516.836 277.692C516.264 278.073 515.531 278.264 514.636 278.264ZM515.076 276.504C515.633 276.504 516.161 276.372 516.66 276.108C517.159 275.829 517.577 275.485 517.914 275.074V268.936C517.518 268.657 517.078 268.437 516.594 268.276C516.125 268.1 515.626 268.012 515.098 268.012C514.394 268.012 513.771 268.195 513.228 268.562C512.7 268.914 512.282 269.413 511.974 270.058C511.666 270.689 511.512 271.429 511.512 272.28C511.512 273.101 511.666 273.835 511.974 274.48C512.282 275.111 512.707 275.609 513.25 275.976C513.793 276.328 514.401 276.504 515.076 276.504ZM527.312 278.264C526.638 278.264 526.029 278.139 525.486 277.89C524.944 277.626 524.511 277.208 524.188 276.636C523.88 276.064 523.726 275.323 523.726 274.414V261.72H525.706V274.216C525.706 275.008 525.868 275.595 526.19 275.976C526.528 276.357 526.99 276.548 527.576 276.548C527.855 276.548 528.126 276.519 528.39 276.46C528.669 276.387 528.904 276.306 529.094 276.218L529.578 277.824C529.314 277.941 528.984 278.044 528.588 278.132C528.207 278.22 527.782 278.264 527.312 278.264ZM548.839 278.22L547.123 273.82H539.995L538.279 278.176L536.497 277.45L542.525 262.6H544.813L550.753 277.45L548.839 278.22ZM540.655 272.06H546.441L543.559 264.668L540.655 272.06ZM552.953 278V262.644C553.554 262.571 554.214 262.519 554.933 262.49C555.666 262.446 556.421 262.424 557.199 262.424C558.475 262.424 559.56 262.629 560.455 263.04C561.349 263.436 562.031 263.986 562.501 264.69C562.97 265.394 563.205 266.201 563.205 267.11C563.205 268.21 562.933 269.141 562.391 269.904C561.848 270.667 561.093 271.253 560.125 271.664C559.157 272.06 558.035 272.258 556.759 272.258C556.143 272.258 555.571 272.236 555.043 272.192V278H552.953ZM557.023 270.52C558.328 270.52 559.34 270.227 560.059 269.64C560.777 269.053 561.137 268.269 561.137 267.286C561.137 266.333 560.792 265.577 560.103 265.02C559.413 264.463 558.431 264.184 557.155 264.184C556.759 264.184 556.385 264.191 556.033 264.206C555.681 264.221 555.351 264.243 555.043 264.272V270.41C555.277 270.439 555.563 270.469 555.901 270.498C556.238 270.513 556.612 270.52 557.023 270.52ZM565.736 278V262.6H567.826V278H565.736Z" fill="white" fill-opacity="0.8"/>
<path d="M89.562 218.22L87.846 213.82H80.718L79.002 218.176L77.22 217.45L83.248 202.6H85.536L91.476 217.45L89.562 218.22ZM81.378 212.06H87.164L84.282 204.668L81.378 212.06ZM93.4553 218V206.56H95.3693V208.474C95.78 207.858 96.3006 207.345 96.9313 206.934C97.5766 206.509 98.3393 206.296 99.2193 206.296C100.51 206.296 101.471 206.685 102.101 207.462C102.747 208.239 103.069 209.266 103.069 210.542V218H101.089V210.762C101.089 209.941 100.891 209.281 100.495 208.782C100.114 208.283 99.5786 208.034 98.8893 208.034C98.2146 208.034 97.5766 208.276 96.9753 208.76C96.374 209.229 95.8606 209.787 95.4353 210.432V218H93.4553ZM110.677 223.104C110.002 223.104 109.342 223.023 108.697 222.862C108.066 222.701 107.502 222.459 107.003 222.136L107.729 220.42C108.081 220.699 108.492 220.926 108.961 221.102C109.43 221.293 110.002 221.388 110.677 221.388C111.718 221.388 112.532 221.109 113.119 220.552C113.72 220.009 114.021 219.137 114.021 217.934V216.526C113.728 216.878 113.302 217.215 112.745 217.538C112.202 217.846 111.55 218 110.787 218C109.922 218 109.1 217.78 108.323 217.34C107.546 216.885 106.915 216.225 106.431 215.36C105.947 214.495 105.705 213.453 105.705 212.236C105.705 211.092 105.94 210.073 106.409 209.178C106.893 208.283 107.538 207.579 108.345 207.066C109.152 206.553 110.039 206.296 111.007 206.296C111.652 206.296 112.239 206.406 112.767 206.626C113.295 206.846 113.75 207.117 114.131 207.44V206.56H115.935V217.736C115.935 218.997 115.715 220.024 115.275 220.816C114.835 221.608 114.219 222.187 113.427 222.554C112.65 222.921 111.733 223.104 110.677 223.104ZM111.227 216.24C111.814 216.24 112.342 216.108 112.811 215.844C113.28 215.58 113.662 215.272 113.955 214.92V208.936C113.632 208.701 113.244 208.489 112.789 208.298C112.334 208.107 111.806 208.012 111.205 208.012C110.604 208.012 110.039 208.173 109.511 208.496C108.983 208.819 108.55 209.288 108.213 209.904C107.89 210.505 107.729 211.246 107.729 212.126C107.729 212.962 107.89 213.688 108.213 214.304C108.55 214.92 108.983 215.397 109.511 215.734C110.039 216.071 110.611 216.24 111.227 216.24ZM123.084 218.264C122.424 218.264 121.801 218.125 121.214 217.846C120.627 217.567 120.151 217.12 119.784 216.504C119.417 215.873 119.234 215.037 119.234 213.996V206.56H121.214V213.732C121.214 214.627 121.405 215.316 121.786 215.8C122.167 216.269 122.725 216.504 123.458 216.504C124.059 216.504 124.639 216.387 125.196 216.152C125.768 215.903 126.274 215.573 126.714 215.162V206.56H128.694V215.03C128.694 215.661 128.826 216.079 129.09 216.284C129.369 216.475 129.669 216.57 129.992 216.57L129.574 218.11C128.21 218.11 127.367 217.567 127.044 216.482C126.531 217.01 125.937 217.443 125.262 217.78C124.587 218.103 123.861 218.264 123.084 218.264ZM136.097 218.264C135.423 218.264 134.814 218.139 134.271 217.89C133.729 217.626 133.296 217.208 132.973 216.636C132.665 216.064 132.511 215.323 132.511 214.414V201.72H134.491V214.216C134.491 215.008 134.653 215.595 134.975 215.976C135.313 216.357 135.775 216.548 136.361 216.548C136.64 216.548 136.911 216.519 137.175 216.46C137.454 216.387 137.689 216.306 137.879 216.218L138.363 217.824C138.099 217.941 137.769 218.044 137.373 218.132C136.992 218.22 136.567 218.264 136.097 218.264ZM144.283 218.264C143.329 218.264 142.464 218.022 141.687 217.538C140.909 217.054 140.286 216.372 139.817 215.492C139.362 214.597 139.135 213.549 139.135 212.346C139.135 211.202 139.362 210.175 139.817 209.266C140.286 208.357 140.924 207.638 141.731 207.11C142.552 206.567 143.491 206.296 144.547 206.296C145.207 206.296 145.801 206.413 146.329 206.648C146.871 206.868 147.341 207.147 147.737 207.484V206.56H149.541V215.228C149.541 215.785 149.673 216.152 149.937 216.328C150.215 216.489 150.516 216.57 150.839 216.57L150.421 218.11C149.013 218.11 148.162 217.538 147.869 216.394C147.531 216.863 147.069 217.296 146.483 217.692C145.911 218.073 145.177 218.264 144.283 218.264ZM144.723 216.504C145.28 216.504 145.808 216.372 146.307 216.108C146.805 215.829 147.223 215.485 147.561 215.074V208.936C147.165 208.657 146.725 208.437 146.241 208.276C145.771 208.1 145.273 208.012 144.745 208.012C144.041 208.012 143.417 208.195 142.875 208.562C142.347 208.914 141.929 209.413 141.621 210.058C141.313 210.689 141.159 211.429 141.159 212.28C141.159 213.101 141.313 213.835 141.621 214.48C141.929 215.111 142.354 215.609 142.897 215.976C143.439 216.328 144.048 216.504 144.723 216.504ZM153.483 218V206.56H155.397V209.046C155.587 208.562 155.844 208.115 156.167 207.704C156.489 207.279 156.893 206.941 157.377 206.692C157.861 206.428 158.425 206.296 159.071 206.296C159.291 206.296 159.511 206.311 159.731 206.34C159.951 206.355 160.134 206.384 160.281 206.428L159.687 208.474C159.408 208.357 159.078 208.298 158.697 208.298C158.154 208.298 157.633 208.452 157.135 208.76C156.651 209.068 156.247 209.545 155.925 210.19C155.617 210.835 155.463 211.657 155.463 212.654V218H153.483ZM169.041 218C168.997 217.736 168.975 217.465 168.975 217.186C168.975 216.233 169.137 215.382 169.459 214.634C169.797 213.871 170.229 213.182 170.757 212.566C171.285 211.935 171.843 211.356 172.429 210.828C173.031 210.285 173.588 209.772 174.101 209.288C174.629 208.789 175.062 208.291 175.399 207.792C175.737 207.293 175.905 206.773 175.905 206.23C175.905 205.614 175.678 205.108 175.223 204.712C174.769 204.301 174.182 204.096 173.463 204.096C172.847 204.096 172.283 204.221 171.769 204.47C171.271 204.705 170.801 205.027 170.361 205.438L169.261 204.096C169.848 203.568 170.493 203.143 171.197 202.82C171.916 202.497 172.745 202.336 173.683 202.336C174.549 202.336 175.304 202.505 175.949 202.842C176.595 203.165 177.093 203.612 177.445 204.184C177.812 204.756 177.995 205.394 177.995 206.098C177.995 206.802 177.841 207.455 177.533 208.056C177.225 208.657 176.829 209.222 176.345 209.75C175.861 210.278 175.341 210.791 174.783 211.29C174.226 211.774 173.691 212.273 173.177 212.786C172.664 213.299 172.224 213.835 171.857 214.392C171.505 214.949 171.285 215.551 171.197 216.196H177.973V218H169.041ZM183.465 218V216.24H186.611V205.13L183.663 207.352L182.585 205.878L187.139 202.6H188.591V216.24H191.209V218H183.465ZM78.98 248V232.644C79.5813 232.571 80.2413 232.519 80.96 232.49C81.6933 232.446 82.4487 232.424 83.226 232.424C84.502 232.424 85.5873 232.629 86.482 233.04C87.3767 233.436 88.0587 233.986 88.528 234.69C88.9973 235.394 89.232 236.201 89.232 237.11C89.232 238.21 88.9607 239.141 88.418 239.904C87.8753 240.667 87.12 241.253 86.152 241.664C85.184 242.06 84.062 242.258 82.786 242.258C82.17 242.258 81.598 242.236 81.07 242.192V248H78.98ZM83.05 240.52C84.3553 240.52 85.3673 240.227 86.086 239.64C86.8047 239.053 87.164 238.269 87.164 237.286C87.164 236.333 86.8193 235.577 86.13 235.02C85.4407 234.463 84.458 234.184 83.182 234.184C82.786 234.184 82.412 234.191 82.06 234.206C81.708 234.221 81.378 234.243 81.07 234.272V240.41C81.3047 240.439 81.5907 240.469 81.928 240.498C82.2653 240.513 82.6393 240.52 83.05 240.52ZM91.5432 248V236.56H93.4572V239.046C93.6479 238.562 93.9045 238.115 94.2272 237.704C94.5499 237.279 94.9532 236.941 95.4372 236.692C95.9212 236.428 96.4859 236.296 97.1312 236.296C97.3512 236.296 97.5712 236.311 97.7912 236.34C98.0112 236.355 98.1945 236.384 98.3412 236.428L97.7472 238.474C97.4685 238.357 97.1385 238.298 96.7572 238.298C96.2145 238.298 95.6939 238.452 95.1952 238.76C94.7112 239.068 94.3079 239.545 93.9852 240.19C93.6772 240.835 93.5232 241.657 93.5232 242.654V248H91.5432ZM100.33 248V236.56H102.31V248H100.33ZM101.32 234.602C100.939 234.602 100.609 234.463 100.33 234.184C100.066 233.905 99.9343 233.583 99.9343 233.216C99.9343 232.791 100.059 232.453 100.308 232.204C100.558 231.955 100.895 231.83 101.32 231.83C101.702 231.83 102.024 231.969 102.288 232.248C102.567 232.512 102.706 232.835 102.706 233.216C102.706 233.627 102.582 233.964 102.332 234.228C102.083 234.477 101.746 234.602 101.32 234.602ZM105.83 248V236.56H107.744V238.474C108.155 237.858 108.676 237.345 109.306 236.934C109.937 236.509 110.656 236.296 111.462 236.296C112.372 236.296 113.112 236.516 113.684 236.956C114.271 237.396 114.682 237.983 114.916 238.716C115.371 238.041 115.906 237.469 116.522 237C117.153 236.531 117.93 236.296 118.854 236.296C120.101 236.296 121.025 236.692 121.626 237.484C122.242 238.261 122.55 239.281 122.55 240.542V248H120.57V240.696C120.57 239.904 120.387 239.266 120.02 238.782C119.654 238.283 119.148 238.034 118.502 238.034C117.842 238.034 117.226 238.283 116.654 238.782C116.097 239.266 115.606 239.838 115.18 240.498V248H113.2V240.696C113.2 239.904 113.017 239.266 112.65 238.782C112.284 238.283 111.778 238.034 111.132 238.034C110.487 238.034 109.878 238.276 109.306 238.76C108.734 239.229 108.236 239.787 107.81 240.432V248H105.83ZM130.537 248.264C128.895 248.264 127.589 247.743 126.621 246.702C125.668 245.646 125.191 244.172 125.191 242.28C125.191 241.136 125.404 240.117 125.829 239.222C126.269 238.313 126.878 237.601 127.655 237.088C128.433 236.56 129.335 236.296 130.361 236.296C131.461 236.296 132.371 236.538 133.089 237.022C133.823 237.491 134.373 238.129 134.739 238.936C135.106 239.743 135.289 240.63 135.289 241.598C135.289 242.111 135.267 242.61 135.223 243.094H127.215C127.347 244.165 127.721 245.001 128.337 245.602C128.953 246.203 129.767 246.504 130.779 246.504C131.439 246.504 132.033 246.438 132.561 246.306C133.089 246.159 133.595 245.976 134.079 245.756L134.541 247.45C134.013 247.685 133.419 247.875 132.759 248.022C132.099 248.183 131.359 248.264 130.537 248.264ZM127.193 241.488H133.463C133.463 240.373 133.185 239.515 132.627 238.914C132.07 238.313 131.3 238.012 130.317 238.012C129.467 238.012 128.763 238.313 128.205 238.914C127.648 239.501 127.311 240.359 127.193 241.488ZM138.148 248V232.6H140.92L147.718 245.404V232.6H149.698V248H146.97L140.128 235.284V248H138.148ZM158.918 248.264C157.73 248.264 156.674 247.956 155.75 247.34C154.826 246.724 154.1 245.851 153.572 244.722C153.044 243.578 152.78 242.236 152.78 240.696C152.78 239.053 153.058 237.609 153.616 236.362C154.173 235.101 154.972 234.118 156.014 233.414C157.07 232.695 158.338 232.336 159.82 232.336C160.773 232.336 161.624 232.453 162.372 232.688C163.12 232.923 163.824 233.223 164.484 233.59L163.714 235.328C163.098 234.991 162.467 234.712 161.822 234.492C161.191 234.272 160.487 234.162 159.71 234.162C158.786 234.162 157.964 234.411 157.246 234.91C156.527 235.394 155.955 236.113 155.53 237.066C155.119 238.019 154.914 239.185 154.914 240.564C154.914 241.796 155.104 242.852 155.486 243.732C155.867 244.597 156.395 245.265 157.07 245.734C157.744 246.203 158.522 246.438 159.402 246.438C160.223 246.438 160.949 246.269 161.58 245.932C162.225 245.58 162.731 245.221 163.098 244.854V241.488H159.908V239.838H165.078V248H163.23V246.46C162.716 246.915 162.093 247.333 161.36 247.714C160.626 248.081 159.812 248.264 158.918 248.264Z" fill="white" fill-opacity="0.8"/>
<path d="M63.26 168V158.2H69.07V159.348H64.59V162.344H68.328V163.436H64.59V168H63.26ZM70.6122 168V160.72H71.8302V162.302C71.9515 161.994 72.1149 161.709 72.3202 161.448C72.5255 161.177 72.7822 160.963 73.0902 160.804C73.3982 160.636 73.7575 160.552 74.1682 160.552C74.3082 160.552 74.4482 160.561 74.5882 160.58C74.7282 160.589 74.8449 160.608 74.9382 160.636L74.5602 161.938C74.3829 161.863 74.1729 161.826 73.9302 161.826C73.5849 161.826 73.2535 161.924 72.9362 162.12C72.6282 162.316 72.3715 162.619 72.1662 163.03C71.9702 163.441 71.8722 163.963 71.8722 164.598V168H70.6122ZM78.8462 168.168C78.1555 168.168 77.5348 168.009 76.9842 167.692C76.4335 167.365 75.9995 166.917 75.6822 166.348C75.3742 165.769 75.2202 165.107 75.2202 164.36C75.2202 163.576 75.3788 162.899 75.6962 162.33C76.0135 161.761 76.4475 161.322 76.9982 161.014C77.5488 160.706 78.1648 160.552 78.8462 160.552C79.5275 160.552 80.1388 160.706 80.6802 161.014C81.2308 161.322 81.6648 161.761 81.9822 162.33C82.3088 162.89 82.4722 163.557 82.4722 164.332C82.4722 165.107 82.3135 165.783 81.9962 166.362C81.6788 166.931 81.2448 167.375 80.6942 167.692C80.1528 168.009 79.5368 168.168 78.8462 168.168ZM78.8462 167.048C79.5835 167.048 80.1575 166.801 80.5682 166.306C80.9788 165.802 81.1842 165.153 81.1842 164.36C81.1842 163.875 81.0815 163.431 80.8762 163.03C80.6708 162.619 80.3908 162.293 80.0362 162.05C79.6908 161.798 79.2942 161.672 78.8462 161.672C78.1088 161.672 77.5348 161.915 77.1242 162.4C76.7135 162.885 76.5082 163.529 76.5082 164.332C76.5082 164.817 76.6108 165.27 76.8162 165.69C77.0215 166.101 77.2968 166.432 77.6422 166.684C77.9968 166.927 78.3982 167.048 78.8462 167.048ZM84.1473 168V160.72H85.3653V161.938C85.6267 161.546 85.958 161.219 86.3593 160.958C86.77 160.687 87.2553 160.552 87.8153 160.552C88.6367 160.552 89.248 160.799 89.6493 161.294C90.06 161.789 90.2653 162.442 90.2653 163.254V168H89.0053V163.394C89.0053 162.871 88.8793 162.451 88.6273 162.134C88.3847 161.817 88.044 161.658 87.6053 161.658C87.176 161.658 86.77 161.812 86.3873 162.12C86.0047 162.419 85.678 162.773 85.4073 163.184V168H84.1473ZM94.9805 168.168C94.2805 168.168 93.7252 167.939 93.3145 167.482C92.9132 167.015 92.7125 166.353 92.7125 165.494V162.078H91.4525V160.986H92.7405L93.0065 158.69H93.9725V160.986H95.9885V162.078H93.9725V165.592C93.9725 166.133 94.0845 166.511 94.3085 166.726C94.5418 166.941 94.8172 167.048 95.1345 167.048C95.3678 167.048 95.5872 167.011 95.7925 166.936C96.0072 166.861 96.2032 166.773 96.3805 166.67L96.7305 167.678C96.5438 167.79 96.2918 167.897 95.9745 168C95.6572 168.112 95.3258 168.168 94.9805 168.168ZM100.636 168.168C99.5902 168.168 98.7595 167.837 98.1435 167.174C97.5368 166.502 97.2335 165.564 97.2335 164.36C97.2335 163.632 97.3688 162.983 97.6395 162.414C97.9195 161.835 98.3068 161.383 98.8015 161.056C99.2962 160.72 99.8702 160.552 100.524 160.552C101.224 160.552 101.802 160.706 102.26 161.014C102.726 161.313 103.076 161.719 103.31 162.232C103.543 162.745 103.66 163.31 103.66 163.926C103.66 164.253 103.646 164.57 103.618 164.878H98.5215C98.6055 165.559 98.8435 166.091 99.2355 166.474C99.6275 166.857 100.146 167.048 100.79 167.048C101.21 167.048 101.588 167.006 101.924 166.922C102.26 166.829 102.582 166.712 102.89 166.572L103.184 167.65C102.848 167.799 102.47 167.921 102.05 168.014C101.63 168.117 101.158 168.168 100.636 168.168ZM98.5075 163.856H102.498C102.498 163.147 102.32 162.601 101.966 162.218C101.611 161.835 101.121 161.644 100.496 161.644C99.9542 161.644 99.5062 161.835 99.1515 162.218C98.7968 162.591 98.5822 163.137 98.5075 163.856ZM105.339 168V160.72H106.557V161.938C106.818 161.546 107.149 161.219 107.551 160.958C107.961 160.687 108.447 160.552 109.007 160.552C109.828 160.552 110.439 160.799 110.841 161.294C111.251 161.789 111.457 162.442 111.457 163.254V168H110.197V163.394C110.197 162.871 110.071 162.451 109.819 162.134C109.576 161.817 109.235 161.658 108.797 161.658C108.367 161.658 107.961 161.812 107.579 162.12C107.196 162.419 106.869 162.773 106.599 163.184V168H105.339ZM116.382 168.168C115.785 168.168 115.239 168.014 114.744 167.706C114.249 167.398 113.857 166.964 113.568 166.404C113.279 165.835 113.134 165.167 113.134 164.402C113.134 163.665 113.279 163.007 113.568 162.428C113.867 161.849 114.259 161.392 114.744 161.056C115.239 160.72 115.78 160.552 116.368 160.552C116.853 160.552 117.269 160.65 117.614 160.846C117.969 161.042 118.244 161.243 118.44 161.448V157.64H119.7V166.236C119.7 166.591 119.784 166.824 119.952 166.936C120.129 167.039 120.321 167.09 120.526 167.09L120.26 168.07C119.373 168.07 118.832 167.715 118.636 167.006C118.431 167.295 118.141 167.561 117.768 167.804C117.404 168.047 116.942 168.168 116.382 168.168ZM116.662 167.048C117.007 167.048 117.334 166.969 117.642 166.81C117.959 166.642 118.225 166.427 118.44 166.166V162.554C118.263 162.33 118.015 162.125 117.698 161.938C117.381 161.742 117.031 161.644 116.648 161.644C116.2 161.644 115.808 161.765 115.472 162.008C115.136 162.251 114.875 162.577 114.688 162.988C114.511 163.389 114.422 163.847 114.422 164.36C114.422 164.873 114.52 165.335 114.716 165.746C114.912 166.147 115.178 166.465 115.514 166.698C115.859 166.931 116.242 167.048 116.662 167.048Z" fill="#A4FFFF" fill-opacity="0.8"/>
<path d="M427.088 168.112C426.519 168.112 425.977 168.098 425.464 168.07C424.96 168.042 424.559 168.009 424.26 167.972V158.228C424.587 158.191 424.993 158.158 425.478 158.13C425.963 158.102 426.519 158.088 427.144 158.088C428.339 158.088 429.258 158.317 429.902 158.774C430.546 159.222 430.868 159.833 430.868 160.608C430.868 161.121 430.728 161.56 430.448 161.924C430.177 162.279 429.781 162.573 429.258 162.806C429.893 163.03 430.373 163.343 430.7 163.744C431.027 164.136 431.19 164.621 431.19 165.2C431.19 166.087 430.84 166.796 430.14 167.328C429.44 167.851 428.423 168.112 427.088 168.112ZM425.59 162.428H427.13C427.867 162.428 428.451 162.274 428.88 161.966C429.319 161.658 429.538 161.261 429.538 160.776C429.538 160.253 429.323 159.857 428.894 159.586C428.465 159.306 427.877 159.166 427.13 159.166C426.822 159.166 426.542 159.175 426.29 159.194C426.038 159.203 425.805 159.217 425.59 159.236V162.428ZM427.186 167.006C428.017 167.006 428.665 166.857 429.132 166.558C429.599 166.259 429.832 165.825 429.832 165.256C429.832 164.696 429.603 164.257 429.146 163.94C428.689 163.623 428.035 163.464 427.186 163.464H425.59V166.922C426.085 166.978 426.617 167.006 427.186 167.006ZM435.724 168.168C435.118 168.168 434.567 168.014 434.072 167.706C433.578 167.398 433.181 166.964 432.882 166.404C432.593 165.835 432.448 165.167 432.448 164.402C432.448 163.674 432.593 163.021 432.882 162.442C433.181 161.863 433.587 161.406 434.1 161.07C434.623 160.725 435.22 160.552 435.892 160.552C436.312 160.552 436.69 160.627 437.026 160.776C437.372 160.916 437.67 161.093 437.922 161.308V160.72H439.07V166.236C439.07 166.591 439.154 166.824 439.322 166.936C439.5 167.039 439.691 167.09 439.896 167.09L439.63 168.07C438.734 168.07 438.193 167.706 438.006 166.978C437.792 167.277 437.498 167.552 437.124 167.804C436.76 168.047 436.294 168.168 435.724 168.168ZM436.004 167.048C436.359 167.048 436.695 166.964 437.012 166.796C437.33 166.619 437.596 166.399 437.81 166.138V162.232C437.558 162.055 437.278 161.915 436.97 161.812C436.672 161.7 436.354 161.644 436.018 161.644C435.57 161.644 435.174 161.761 434.828 161.994C434.492 162.218 434.226 162.535 434.03 162.946C433.834 163.347 433.736 163.819 433.736 164.36C433.736 164.883 433.834 165.349 434.03 165.76C434.226 166.161 434.497 166.479 434.842 166.712C435.188 166.936 435.575 167.048 436.004 167.048ZM444.382 168.168C443.692 168.168 443.085 168.009 442.562 167.692C442.049 167.365 441.652 166.917 441.372 166.348C441.092 165.769 440.952 165.107 440.952 164.36C440.952 163.66 441.092 163.021 441.372 162.442C441.662 161.863 442.072 161.406 442.604 161.07C443.136 160.725 443.762 160.552 444.48 160.552C444.891 160.552 445.25 160.589 445.558 160.664C445.876 160.739 446.179 160.846 446.468 160.986L446.09 162.05C445.829 161.919 445.577 161.826 445.334 161.77C445.101 161.705 444.84 161.672 444.55 161.672C443.897 161.672 443.346 161.91 442.898 162.386C442.46 162.853 442.24 163.501 442.24 164.332C442.24 164.836 442.334 165.293 442.52 165.704C442.707 166.115 442.964 166.441 443.29 166.684C443.626 166.927 444.018 167.048 444.466 167.048C444.821 167.048 445.124 167.011 445.376 166.936C445.628 166.852 445.899 166.735 446.188 166.586L446.58 167.65C446.291 167.809 445.964 167.935 445.6 168.028C445.246 168.121 444.84 168.168 444.382 168.168ZM453.072 168.14L449.306 164.262V168H448.046V157.64H449.306V163.562L452.596 160.58L453.324 161.378L450.51 163.87L453.94 167.3L453.072 168.14ZM457.903 168.168C456.858 168.168 456.027 167.837 455.411 167.174C454.804 166.502 454.501 165.564 454.501 164.36C454.501 163.632 454.636 162.983 454.907 162.414C455.187 161.835 455.574 161.383 456.069 161.056C456.564 160.72 457.138 160.552 457.791 160.552C458.491 160.552 459.07 160.706 459.527 161.014C459.994 161.313 460.344 161.719 460.577 162.232C460.81 162.745 460.927 163.31 460.927 163.926C460.927 164.253 460.913 164.57 460.885 164.878H455.789C455.873 165.559 456.111 166.091 456.503 166.474C456.895 166.857 457.413 167.048 458.057 167.048C458.477 167.048 458.855 167.006 459.191 166.922C459.527 166.829 459.849 166.712 460.157 166.572L460.451 167.65C460.115 167.799 459.737 167.921 459.317 168.014C458.897 168.117 458.426 168.168 457.903 168.168ZM455.775 163.856H459.765C459.765 163.147 459.588 162.601 459.233 162.218C458.878 161.835 458.388 161.644 457.763 161.644C457.222 161.644 456.774 161.835 456.419 162.218C456.064 162.591 455.85 163.137 455.775 163.856ZM462.606 168V160.72H463.824V161.938C464.086 161.546 464.417 161.219 464.818 160.958C465.229 160.687 465.714 160.552 466.274 160.552C467.096 160.552 467.707 160.799 468.108 161.294C468.519 161.789 468.724 162.442 468.724 163.254V168H467.464V163.394C467.464 162.871 467.338 162.451 467.086 162.134C466.844 161.817 466.503 161.658 466.064 161.658C465.635 161.658 465.229 161.812 464.846 162.12C464.464 162.419 464.137 162.773 463.866 163.184V168H462.606ZM473.649 168.168C473.052 168.168 472.506 168.014 472.011 167.706C471.517 167.398 471.125 166.964 470.835 166.404C470.546 165.835 470.401 165.167 470.401 164.402C470.401 163.665 470.546 163.007 470.835 162.428C471.134 161.849 471.526 161.392 472.011 161.056C472.506 160.72 473.047 160.552 473.635 160.552C474.121 160.552 474.536 160.65 474.881 160.846C475.236 161.042 475.511 161.243 475.707 161.448V157.64H476.967V166.236C476.967 166.591 477.051 166.824 477.219 166.936C477.397 167.039 477.588 167.09 477.793 167.09L477.527 168.07C476.641 168.07 476.099 167.715 475.903 167.006C475.698 167.295 475.409 167.561 475.035 167.804C474.671 168.047 474.209 168.168 473.649 168.168ZM473.929 167.048C474.275 167.048 474.601 166.969 474.909 166.81C475.227 166.642 475.493 166.427 475.707 166.166V162.554C475.53 162.33 475.283 162.125 474.965 161.938C474.648 161.742 474.298 161.644 473.915 161.644C473.467 161.644 473.075 161.765 472.739 162.008C472.403 162.251 472.142 162.577 471.955 162.988C471.778 163.389 471.689 163.847 471.689 164.36C471.689 164.873 471.787 165.335 471.983 165.746C472.179 166.147 472.445 166.465 472.781 166.698C473.127 166.931 473.509 167.048 473.929 167.048Z" fill="#A4FFFF" fill-opacity="0.8"/>
<path d="M416 264.297L264.21 263.959" stroke="#D8FC73" stroke-width="2" stroke-linecap="round" stroke-linejoin="round"/>
<path d="M264.327 255.749C259.728 255.749 256 259.477 256 264.076C256 268.675 259.728 272.403 264.327 272.403C268.925 272.403 272.654 268.675 272.654 264.076C272.654 259.477 268.925 255.749 264.327 255.749Z" fill="#233345" stroke="#D8FC73" stroke-width="2"/>
<path d="M399.243 280.309L415.895 263.655L399.243 247" stroke="#D8FC73" stroke-width="2" stroke-linecap="round" stroke-linejoin="round"/>
<path d="M244.566 210.427H417.894C426.49 210.427 433.459 217.397 433.459 225.994C433.459 234.591 426.49 241.56 417.894 241.56H244.566C235.97 241.56 229 234.591 229 225.994C229 217.397 235.969 210.427 244.566 210.427Z" stroke="#A4FFFF" stroke-width="1.01426"/>
<path d="M244.566 210.427H417.894C426.49 210.427 433.459 217.397 433.459 225.994C433.459 234.591 426.49 241.56 417.894 241.56H244.566C235.97 241.56 229 234.591 229 225.994C229 217.397 235.969 210.427 244.566 210.427Z" fill="#182534"/>
<path d="M265.421 232.216C264.869 232.216 264.347 232.12 263.855 231.928C263.375 231.736 262.973 231.484 262.649 231.172L263.477 229.858C263.717 230.11 264.005 230.32 264.341 230.488C264.677 230.656 265.019 230.74 265.367 230.74C265.943 230.74 266.399 230.536 266.735 230.128C267.071 229.708 267.239 229.006 267.239 228.022V219.4H268.949V227.842C268.949 229.366 268.625 230.476 267.977 231.172C267.329 231.868 266.477 232.216 265.421 232.216ZM275.135 232.216C274.259 232.216 273.461 232.102 272.741 231.874C272.021 231.634 271.415 231.322 270.923 230.938L271.787 229.498C272.219 229.858 272.705 230.152 273.245 230.38C273.785 230.608 274.415 230.722 275.135 230.722C275.999 230.722 276.683 230.542 277.187 230.182C277.691 229.822 277.943 229.336 277.943 228.724C277.943 228.376 277.871 228.07 277.727 227.806C277.583 227.53 277.301 227.266 276.881 227.014C276.473 226.75 275.867 226.468 275.063 226.168C274.199 225.832 273.509 225.496 272.993 225.16C272.477 224.812 272.105 224.422 271.877 223.99C271.661 223.546 271.553 223.024 271.553 222.424C271.553 221.824 271.715 221.284 272.039 220.804C272.375 220.312 272.861 219.922 273.497 219.634C274.145 219.334 274.925 219.184 275.837 219.184C276.581 219.184 277.247 219.262 277.835 219.418C278.435 219.562 279.017 219.772 279.581 220.048L278.951 221.506C278.543 221.266 278.063 221.068 277.511 220.912C276.971 220.744 276.401 220.66 275.801 220.66C275.009 220.66 274.385 220.816 273.929 221.128C273.473 221.44 273.245 221.842 273.245 222.334C273.245 222.646 273.311 222.922 273.443 223.162C273.575 223.402 273.833 223.636 274.217 223.864C274.613 224.092 275.201 224.35 275.981 224.638C276.917 224.986 277.655 225.352 278.195 225.736C278.747 226.12 279.137 226.54 279.365 226.996C279.593 227.44 279.707 227.95 279.707 228.526C279.707 229.306 279.509 229.972 279.113 230.524C278.729 231.076 278.189 231.496 277.493 231.784C276.809 232.072 276.023 232.216 275.135 232.216ZM287.454 232.216C286.518 232.216 285.684 232.048 284.952 231.712C284.22 231.364 283.596 230.896 283.08 230.308C282.576 229.708 282.186 229.012 281.91 228.22C281.646 227.428 281.514 226.582 281.514 225.682C281.514 224.446 281.748 223.342 282.216 222.37C282.696 221.386 283.38 220.612 284.268 220.048C285.156 219.472 286.218 219.184 287.454 219.184C288.378 219.184 289.206 219.352 289.938 219.688C290.682 220.024 291.312 220.492 291.828 221.092C292.344 221.692 292.734 222.382 292.998 223.162C293.274 223.942 293.412 224.782 293.412 225.682C293.412 226.582 293.274 227.428 292.998 228.22C292.734 229.012 292.344 229.708 291.828 230.308C291.312 230.896 290.688 231.364 289.956 231.712C289.224 232.048 288.39 232.216 287.454 232.216ZM287.454 230.74C288.378 230.74 289.152 230.518 289.776 230.074C290.4 229.63 290.868 229.03 291.18 228.274C291.504 227.506 291.666 226.642 291.666 225.682C291.666 225.034 291.57 224.41 291.378 223.81C291.186 223.21 290.91 222.676 290.55 222.208C290.19 221.728 289.746 221.35 289.218 221.074C288.702 220.798 288.114 220.66 287.454 220.66C286.578 220.66 285.822 220.882 285.186 221.326C284.562 221.77 284.082 222.37 283.746 223.126C283.422 223.882 283.26 224.734 283.26 225.682C283.26 226.33 283.35 226.96 283.53 227.572C283.722 228.172 283.998 228.712 284.358 229.192C284.718 229.672 285.156 230.05 285.672 230.326C286.2 230.602 286.794 230.74 287.454 230.74ZM295.927 232V219.4H298.195L303.757 229.876V219.4H305.377V232H303.145L297.547 221.596V232H295.927ZM316.085 232L312.665 219.814L314.357 219.274L317.201 230.182L319.883 220.714H322.025L324.689 230.182L327.515 219.328L329.099 219.814L325.697 232H323.573L320.909 222.532L318.209 232H316.085ZM330.995 232V219.4H338.555V220.876H332.705V224.71H337.745V226.15H332.705V230.524H338.555V232H330.995ZM344.616 232.144C343.884 232.144 343.188 232.126 342.528 232.09C341.88 232.054 341.364 232.012 340.98 231.964V219.436C341.4 219.388 341.922 219.346 342.546 219.31C343.17 219.274 343.884 219.256 344.688 219.256C346.224 219.256 347.406 219.55 348.234 220.138C349.062 220.714 349.476 221.5 349.476 222.496C349.476 223.156 349.296 223.72 348.936 224.188C348.588 224.644 348.078 225.022 347.406 225.322C348.222 225.61 348.84 226.012 349.26 226.528C349.68 227.032 349.89 227.656 349.89 228.4C349.89 229.54 349.44 230.452 348.54 231.136C347.64 231.808 346.332 232.144 344.616 232.144ZM342.69 224.836H344.67C345.618 224.836 346.368 224.638 346.92 224.242C347.484 223.846 347.766 223.336 347.766 222.712C347.766 222.04 347.49 221.53 346.938 221.182C346.386 220.822 345.63 220.642 344.67 220.642C344.274 220.642 343.914 220.654 343.59 220.678C343.266 220.69 342.966 220.708 342.69 220.732V224.836ZM344.742 230.722C345.81 230.722 346.644 230.53 347.244 230.146C347.844 229.762 348.144 229.204 348.144 228.472C348.144 227.752 347.85 227.188 347.262 226.78C346.674 226.372 345.834 226.168 344.742 226.168H342.69V230.614C343.326 230.686 344.01 230.722 344.742 230.722ZM360.144 232V220.912H356.274V219.4H365.724V220.912H361.854V232H360.144ZM369.755 232.216C368.867 232.216 368.069 232.012 367.361 231.604C366.653 231.184 366.095 230.608 365.687 229.876C365.291 229.132 365.093 228.28 365.093 227.32C365.093 226.312 365.297 225.442 365.705 224.71C366.113 223.978 366.671 223.414 367.379 223.018C368.087 222.622 368.879 222.424 369.755 222.424C370.631 222.424 371.417 222.622 372.113 223.018C372.821 223.414 373.379 223.978 373.787 224.71C374.207 225.43 374.417 226.288 374.417 227.284C374.417 228.28 374.213 229.15 373.805 229.894C373.397 230.626 372.839 231.196 372.131 231.604C371.435 232.012 370.643 232.216 369.755 232.216ZM369.755 230.776C370.703 230.776 371.441 230.458 371.969 229.822C372.497 229.174 372.761 228.34 372.761 227.32C372.761 226.696 372.629 226.126 372.365 225.61C372.101 225.082 371.741 224.662 371.285 224.35C370.841 224.026 370.331 223.864 369.755 223.864C368.807 223.864 368.069 224.176 367.541 224.8C367.013 225.424 366.749 226.252 366.749 227.284C366.749 227.908 366.881 228.49 367.145 229.03C367.409 229.558 367.763 229.984 368.207 230.308C368.663 230.62 369.179 230.776 369.755 230.776ZM383.033 232.18L378.191 227.194V232H376.571V218.68H378.191V226.294L382.421 222.46L383.357 223.486L379.739 226.69L384.149 231.1L383.033 232.18ZM389.245 232.216C387.901 232.216 386.833 231.79 386.041 230.938C385.261 230.074 384.871 228.868 384.871 227.32C384.871 226.384 385.045 225.55 385.393 224.818C385.753 224.074 386.251 223.492 386.887 223.072C387.523 222.64 388.261 222.424 389.101 222.424C390.001 222.424 390.745 222.622 391.333 223.018C391.933 223.402 392.383 223.924 392.683 224.584C392.983 225.244 393.133 225.97 393.133 226.762C393.133 227.182 393.115 227.59 393.079 227.986H386.527C386.635 228.862 386.941 229.546 387.445 230.038C387.949 230.53 388.615 230.776 389.443 230.776C389.983 230.776 390.469 230.722 390.901 230.614C391.333 230.494 391.747 230.344 392.143 230.164L392.521 231.55C392.089 231.742 391.603 231.898 391.063 232.018C390.523 232.15 389.917 232.216 389.245 232.216ZM386.509 226.672H391.639C391.639 225.76 391.411 225.058 390.955 224.566C390.499 224.074 389.869 223.828 389.065 223.828C388.369 223.828 387.793 224.074 387.337 224.566C386.881 225.046 386.605 225.748 386.509 226.672ZM395.292 232V222.64H396.858V224.206C397.194 223.702 397.62 223.282 398.136 222.946C398.664 222.598 399.288 222.424 400.008 222.424C401.064 222.424 401.85 222.742 402.366 223.378C402.894 224.014 403.158 224.854 403.158 225.898V232H401.538V226.078C401.538 225.406 401.376 224.866 401.052 224.458C400.74 224.05 400.302 223.846 399.738 223.846C399.186 223.846 398.664 224.044 398.172 224.44C397.68 224.824 397.26 225.28 396.912 225.808V232H395.292Z" fill="#A4FFFF" fill-opacity="0.8"/>
<defs>
<linearGradient id="paint0_linear_2301_6147" x1="55" y1="97.7741" x2="268" y2="97.7741" gradientUnits="userSpaceOnUse">
<stop stop-color="#F0070C"/>
<stop offset="0.526" stop-color="#CC26D5"/>
<stop offset="1" stop-color="#7702FF"/>
</linearGradient>
<radialGradient id="paint1_radial_2301_6147" cx="0" cy="0" r="1" gradientTransform="matrix(-21.04 39.4894 -39.368 -21.1048 121.264 42.6191)" gradientUnits="userSpaceOnUse">
<stop stop-color="#FF41F8"/>
<stop offset="0.707" stop-color="#FF41F8" stop-opacity="0.5"/>
<stop offset="1" stop-color="#FF41F8" stop-opacity="0"/>
</radialGradient>
<linearGradient id="paint2_linear_2301_6147" x1="650" y1="249.5" x2="408" y2="249.5" gradientUnits="userSpaceOnUse">
<stop offset="0.807692" stop-color="#233345"/>
</linearGradient>
<linearGradient id="paint3_linear_2301_6147" x1="288" y1="249.5" x2="46" y2="249.5" gradientUnits="userSpaceOnUse">
<stop offset="0.807692" stop-color="#233345"/>
</linearGradient>
</defs>
</svg>
