<svg width="700" height="400" viewBox="0 0 700 400" fill="none" xmlns="http://www.w3.org/2000/svg">
<rect width="700" height="400" rx="10" fill="#233345"/>
<path d="M270.913 63H33.0875C26.964 63 22 67.5541 22 73.1718V348.828C22 354.446 26.964 359 33.0875 359H270.913C277.036 359 282 354.446 282 348.828V73.1718C282 67.5541 277.036 63 270.913 63Z" fill="#111B26"/>
<path d="M555.913 63H318.087C311.964 63 307 67.5541 307 73.1718V348.828C307 354.446 311.964 359 318.087 359H555.913C562.036 359 567 354.446 567 348.828V73.1718C567 67.5541 562.036 63 555.913 63Z" fill="#111B26"/>
<mask id="mask0_2303_103" style="mask-type:luminance" maskUnits="userSpaceOnUse" x="48" y="113" width="213" height="52">
<path d="M48 113H261V165H48V113Z" fill="white"/>
</mask>
<g mask="url(#mask0_2303_103)">
<path d="M132.305 154.692H138.997L126.803 119.925H119.047L106.854 154.692H113.545L116.403 146.13H129.43L132.305 154.692ZM118.107 141.056L122.792 127.064H123.058L127.744 141.056H118.107ZM145.617 139.418V154.692H139.494V128.63H145.351V133.063H145.652C146.256 131.603 147.214 130.446 148.528 129.591C149.841 128.737 151.474 128.31 153.409 128.31C155.201 128.31 156.763 128.702 158.112 129.467C159.443 130.232 160.49 131.354 161.218 132.814C161.963 134.274 162.318 136.036 162.301 138.119V154.692H156.177V139.045C156.177 137.3 155.734 135.947 154.828 134.95C153.923 133.971 152.699 133.473 151.119 133.473C150.054 133.473 149.096 133.704 148.261 134.184C147.427 134.647 146.788 135.324 146.309 136.214C145.865 137.086 145.617 138.154 145.617 139.418ZM175.807 165C173.606 165 171.725 164.697 170.145 164.11C168.566 163.522 167.306 162.721 166.347 161.724C165.389 160.728 164.714 159.624 164.359 158.413L169.879 157.078C170.128 157.594 170.483 158.093 170.962 158.591C171.441 159.09 172.08 159.517 172.879 159.855C173.677 160.193 174.707 160.354 175.931 160.354C177.671 160.354 179.108 159.926 180.244 159.09C181.38 158.253 181.948 156.865 181.948 154.942V150.011H181.646C181.327 150.651 180.865 151.292 180.262 151.969C179.659 152.645 178.86 153.197 177.884 153.642C176.89 154.087 175.665 154.319 174.174 154.319C172.186 154.319 170.376 153.838 168.743 152.895C167.128 151.951 165.832 150.527 164.892 148.658C163.933 146.771 163.454 144.421 163.454 141.572C163.454 138.724 163.933 136.285 164.892 134.309C165.85 132.333 167.128 130.838 168.761 129.805C170.394 128.773 172.204 128.274 174.192 128.274C175.718 128.274 176.978 128.523 177.955 129.04C178.949 129.556 179.729 130.179 180.315 130.891C180.901 131.603 181.345 132.28 181.646 132.921H181.984V128.613H188.018V155.102C188.018 157.327 187.486 159.179 186.421 160.639C185.356 162.098 183.918 163.184 182.072 163.914C180.227 164.644 178.132 165 175.807 165ZM175.86 149.494C177.156 149.494 178.256 149.174 179.179 148.551C180.085 147.91 180.794 147.002 181.256 145.827C181.735 144.634 181.966 143.21 181.966 141.555C181.966 139.899 181.735 138.475 181.256 137.247C180.794 136.018 180.102 135.057 179.197 134.363C178.292 133.686 177.174 133.33 175.86 133.33C174.547 133.33 173.358 133.686 172.435 134.398C171.53 135.11 170.837 136.089 170.376 137.318C169.915 138.564 169.684 139.97 169.684 141.537C169.684 143.103 169.915 144.528 170.394 145.72C170.855 146.913 171.547 147.839 172.47 148.498C173.376 149.156 174.511 149.494 175.86 149.494ZM206.565 143.727V128.63H212.688V154.692H206.743V150.064H206.477C205.891 151.524 204.932 152.716 203.583 153.642C202.252 154.568 200.602 155.031 198.649 155.031C196.946 155.031 195.437 154.657 194.141 153.891C192.846 153.126 191.816 152.022 191.089 150.545C190.361 149.085 189.988 147.305 189.988 145.222V128.63H196.129V144.278C196.129 145.934 196.573 147.251 197.478 148.213C198.383 149.192 199.572 149.672 201.028 149.672C201.933 149.672 202.803 149.459 203.655 149.014C204.506 148.569 205.199 147.91 205.749 147.038C206.299 146.147 206.565 145.044 206.565 143.727ZM220.817 119.925V154.692H214.694V119.925H220.817V119.925ZM230.544 155.209C228.893 155.209 227.42 154.906 226.106 154.319C224.793 153.731 223.746 152.841 223 151.684C222.237 150.527 221.864 149.085 221.864 147.376C221.864 145.898 222.131 144.688 222.681 143.727C223.231 142.765 223.959 142 224.9 141.412C225.84 140.842 226.887 140.397 228.077 140.095C229.248 139.792 230.472 139.579 231.733 139.436C233.259 139.276 234.484 139.134 235.442 139.009C236.383 138.884 237.075 138.671 237.519 138.404C237.945 138.119 238.175 137.692 238.175 137.104V136.997C238.175 135.716 237.803 134.736 237.039 134.024C236.276 133.33 235.194 132.974 233.774 132.974C232.265 132.974 231.094 133.294 230.206 133.953C229.337 134.612 228.751 135.377 228.431 136.285L222.716 135.466C223.16 133.882 223.906 132.565 224.953 131.478C225.982 130.41 227.26 129.61 228.751 129.075C230.259 128.541 231.91 128.274 233.721 128.274C234.981 128.274 236.223 128.417 237.465 128.719C238.708 129.022 239.844 129.502 240.873 130.179C241.903 130.856 242.719 131.764 243.358 132.921C243.979 134.078 244.299 135.52 244.299 137.247V154.692H238.406V151.114H238.211C237.838 151.844 237.324 152.521 236.649 153.144C235.975 153.767 235.14 154.283 234.129 154.657C233.082 155.031 231.91 155.209 230.544 155.209ZM232.141 150.705C233.366 150.705 234.431 150.456 235.336 149.975C236.241 149.477 236.933 148.836 237.43 148.017C237.927 147.198 238.158 146.308 238.158 145.346V142.267C237.962 142.427 237.643 142.569 237.182 142.712C236.72 142.854 236.223 142.961 235.655 143.068C235.087 143.175 234.537 143.264 233.987 143.335C233.436 143.406 232.957 143.477 232.549 143.531C231.644 143.655 230.81 143.851 230.1 144.136C229.372 144.421 228.804 144.812 228.396 145.311C227.97 145.809 227.775 146.468 227.775 147.251C227.775 148.391 228.183 149.245 229.017 149.815C229.816 150.42 230.863 150.705 232.141 150.705ZM246.162 154.692V128.63H252.108V132.974H252.374C252.854 131.461 253.67 130.304 254.823 129.485C255.977 128.666 257.308 128.256 258.799 128.256C259.136 128.256 259.527 128.274 259.935 128.292C260.361 128.328 260.716 128.363 261 128.417V134.06C260.734 133.971 260.326 133.882 259.775 133.811C259.24 133.741 258.7 133.705 258.16 133.704C257.042 133.704 256.048 133.953 255.161 134.434C254.273 134.914 253.581 135.573 253.067 136.428C252.552 137.282 252.303 138.261 252.303 139.365V154.692H246.162ZM96.1695 121.527L94.4301 148.925L77.7998 113L96.1695 121.527ZM84.6508 156.953L72.0848 164.146L59.5187 156.953L62.0745 150.74H82.095L84.6508 156.953ZM72.0848 126.636L78.6694 142.694H65.5001L72.0848 126.636ZM49.7216 148.925L48 121.527L66.3696 113L49.7216 148.925Z" fill="url(#paint0_linear_2303_103)"/>
<path d="M132.305 154.692H138.997L126.803 119.925H119.047L106.854 154.692H113.545L116.403 146.13H129.43L132.305 154.692ZM118.107 141.056L122.792 127.064H123.058L127.744 141.056H118.107ZM145.617 139.418V154.692H139.494V128.63H145.351V133.063H145.652C146.256 131.603 147.214 130.446 148.528 129.591C149.841 128.737 151.474 128.31 153.409 128.31C155.201 128.31 156.763 128.702 158.112 129.467C159.443 130.232 160.49 131.354 161.218 132.814C161.963 134.274 162.318 136.036 162.301 138.119V154.692H156.177V139.045C156.177 137.3 155.734 135.947 154.828 134.95C153.923 133.971 152.699 133.473 151.119 133.473C150.054 133.473 149.096 133.704 148.261 134.184C147.427 134.647 146.788 135.324 146.309 136.214C145.865 137.086 145.617 138.154 145.617 139.418ZM175.807 165C173.606 165 171.725 164.697 170.145 164.11C168.566 163.522 167.306 162.721 166.347 161.724C165.389 160.728 164.714 159.624 164.359 158.413L169.879 157.078C170.128 157.594 170.483 158.093 170.962 158.591C171.441 159.09 172.08 159.517 172.879 159.855C173.677 160.193 174.707 160.354 175.931 160.354C177.671 160.354 179.108 159.926 180.244 159.09C181.38 158.253 181.948 156.865 181.948 154.942V150.011H181.646C181.327 150.651 180.865 151.292 180.262 151.969C179.659 152.645 178.86 153.197 177.884 153.642C176.89 154.087 175.665 154.319 174.174 154.319C172.186 154.319 170.376 153.838 168.743 152.895C167.128 151.951 165.832 150.527 164.892 148.658C163.933 146.771 163.454 144.421 163.454 141.572C163.454 138.724 163.933 136.285 164.892 134.309C165.85 132.333 167.128 130.838 168.761 129.805C170.394 128.773 172.204 128.274 174.192 128.274C175.718 128.274 176.978 128.523 177.955 129.04C178.949 129.556 179.729 130.179 180.315 130.891C180.901 131.603 181.345 132.28 181.646 132.921H181.984V128.613H188.018V155.102C188.018 157.327 187.486 159.179 186.421 160.639C185.356 162.098 183.918 163.184 182.072 163.914C180.227 164.644 178.132 165 175.807 165ZM175.86 149.494C177.156 149.494 178.256 149.174 179.179 148.551C180.085 147.91 180.794 147.002 181.256 145.827C181.735 144.634 181.966 143.21 181.966 141.555C181.966 139.899 181.735 138.475 181.256 137.247C180.794 136.018 180.102 135.057 179.197 134.363C178.292 133.686 177.174 133.33 175.86 133.33C174.547 133.33 173.358 133.686 172.435 134.398C171.53 135.11 170.837 136.089 170.376 137.318C169.915 138.564 169.684 139.97 169.684 141.537C169.684 143.103 169.915 144.528 170.394 145.72C170.855 146.913 171.547 147.839 172.47 148.498C173.376 149.156 174.511 149.494 175.86 149.494ZM206.565 143.727V128.63H212.688V154.692H206.743V150.064H206.477C205.891 151.524 204.932 152.716 203.583 153.642C202.252 154.568 200.602 155.031 198.649 155.031C196.946 155.031 195.437 154.657 194.141 153.891C192.846 153.126 191.816 152.022 191.089 150.545C190.361 149.085 189.988 147.305 189.988 145.222V128.63H196.129V144.278C196.129 145.934 196.573 147.251 197.478 148.213C198.383 149.192 199.572 149.672 201.028 149.672C201.933 149.672 202.803 149.459 203.655 149.014C204.506 148.569 205.199 147.91 205.749 147.038C206.299 146.147 206.565 145.044 206.565 143.727ZM220.817 119.925V154.692H214.694V119.925H220.817V119.925ZM230.544 155.209C228.893 155.209 227.42 154.906 226.106 154.319C224.793 153.731 223.746 152.841 223 151.684C222.237 150.527 221.864 149.085 221.864 147.376C221.864 145.898 222.131 144.688 222.681 143.727C223.231 142.765 223.959 142 224.9 141.412C225.84 140.842 226.887 140.397 228.077 140.095C229.248 139.792 230.472 139.579 231.733 139.436C233.259 139.276 234.484 139.134 235.442 139.009C236.383 138.884 237.075 138.671 237.519 138.404C237.945 138.119 238.175 137.692 238.175 137.104V136.997C238.175 135.716 237.803 134.736 237.039 134.024C236.276 133.33 235.194 132.974 233.774 132.974C232.265 132.974 231.094 133.294 230.206 133.953C229.337 134.612 228.751 135.377 228.431 136.285L222.716 135.466C223.16 133.882 223.906 132.565 224.953 131.478C225.982 130.41 227.26 129.61 228.751 129.075C230.259 128.541 231.91 128.274 233.721 128.274C234.981 128.274 236.223 128.417 237.465 128.719C238.708 129.022 239.844 129.502 240.873 130.179C241.903 130.856 242.719 131.764 243.358 132.921C243.979 134.078 244.299 135.52 244.299 137.247V154.692H238.406V151.114H238.211C237.838 151.844 237.324 152.521 236.649 153.144C235.975 153.767 235.14 154.283 234.129 154.657C233.082 155.031 231.91 155.209 230.544 155.209ZM232.141 150.705C233.366 150.705 234.431 150.456 235.336 149.975C236.241 149.477 236.933 148.836 237.43 148.017C237.927 147.198 238.158 146.308 238.158 145.346V142.267C237.962 142.427 237.643 142.569 237.182 142.712C236.72 142.854 236.223 142.961 235.655 143.068C235.087 143.175 234.537 143.264 233.987 143.335C233.436 143.406 232.957 143.477 232.549 143.531C231.644 143.655 230.81 143.851 230.1 144.136C229.372 144.421 228.804 144.812 228.396 145.311C227.97 145.809 227.775 146.468 227.775 147.251C227.775 148.391 228.183 149.245 229.017 149.815C229.816 150.42 230.863 150.705 232.141 150.705ZM246.162 154.692V128.63H252.108V132.974H252.374C252.854 131.461 253.67 130.304 254.823 129.485C255.977 128.666 257.308 128.256 258.799 128.256C259.136 128.256 259.527 128.274 259.935 128.292C260.361 128.328 260.716 128.363 261 128.417V134.06C260.734 133.971 260.326 133.882 259.775 133.811C259.24 133.741 258.7 133.705 258.16 133.704C257.042 133.704 256.048 133.953 255.161 134.434C254.273 134.914 253.581 135.573 253.067 136.428C252.552 137.282 252.303 138.261 252.303 139.365V154.692H246.162ZM96.1695 121.527L94.4301 148.925L77.7998 113L96.1695 121.527ZM84.6508 156.953L72.0848 164.146L59.5187 156.953L62.0745 150.74H82.095L84.6508 156.953ZM72.0848 126.636L78.6694 142.694H65.5001L72.0848 126.636ZM49.7216 148.925L48 121.527L66.3696 113L49.7216 148.925Z" fill="url(#paint1_radial_2303_103)"/>
</g>
<path d="M480 98H398V180H480V98Z" fill="#512BD4"/>
<path d="M412.615 150.389C412.035 150.389 411.542 150.195 411.137 149.809C410.731 149.413 410.528 148.942 410.528 148.397C410.528 147.842 410.731 147.367 411.137 146.97C411.542 146.574 412.035 146.376 412.615 146.376C413.205 146.376 413.702 146.574 414.108 146.97C414.524 147.367 414.731 147.842 414.731 148.397C414.731 148.942 414.524 149.413 414.108 149.809C413.702 150.195 413.205 150.389 412.615 150.389Z" fill="white"/>
<path d="M435.793 150.062H432.024L422.095 134.398C421.844 134.001 421.636 133.59 421.472 133.164H421.385C421.462 133.62 421.501 134.596 421.501 136.092V150.062H418.167V128.75H422.182L431.778 144.043C432.184 144.677 432.445 145.113 432.561 145.351H432.619C432.522 144.786 432.474 143.83 432.474 142.482V128.75H435.793V150.062Z" fill="white"/>
<path d="M452.028 150.062H440.36V128.75H451.564V131.752H443.81V137.786H450.956V140.773H443.81V147.075H452.028V150.062Z" fill="white"/>
<path d="M468.611 131.752H462.639V150.062H459.189V131.752H453.232V128.75H468.611V131.752Z" fill="white"/>
<rect x="336" y="196" width="210" height="126" rx="10" fill="url(#paint2_linear_2303_103)" stroke="#A4FFFF"/>
<rect x="49" y="196" width="210" height="126" rx="10" fill="url(#paint3_linear_2303_103)" stroke="#A4FFFF"/>
<path d="M353.69 222L350.27 209.814L351.962 209.274L354.806 220.182L357.488 210.714H359.63L362.294 220.182L365.12 209.328L366.704 209.814L363.302 222H361.178L358.514 212.532L355.814 222H353.69ZM371.62 222.216C370.276 222.216 369.208 221.79 368.416 220.938C367.636 220.074 367.246 218.868 367.246 217.32C367.246 216.384 367.42 215.55 367.768 214.818C368.128 214.074 368.626 213.492 369.262 213.072C369.898 212.64 370.636 212.424 371.476 212.424C372.376 212.424 373.12 212.622 373.708 213.018C374.308 213.402 374.758 213.924 375.058 214.584C375.358 215.244 375.508 215.97 375.508 216.762C375.508 217.182 375.49 217.59 375.454 217.986H368.902C369.01 218.862 369.316 219.546 369.82 220.038C370.324 220.53 370.99 220.776 371.818 220.776C372.358 220.776 372.844 220.722 373.276 220.614C373.708 220.494 374.122 220.344 374.518 220.164L374.896 221.55C374.464 221.742 373.978 221.898 373.438 222.018C372.898 222.15 372.292 222.216 371.62 222.216ZM368.884 216.672H374.014C374.014 215.76 373.786 215.058 373.33 214.566C372.874 214.074 372.244 213.828 371.44 213.828C370.744 213.828 370.168 214.074 369.712 214.566C369.256 215.046 368.98 215.748 368.884 216.672ZM381.879 222.216C381.339 222.216 380.829 222.12 380.349 221.928C379.881 221.724 379.491 221.49 379.179 221.226V222H377.667V208.68H379.287V213.612C379.527 213.336 379.875 213.072 380.331 212.82C380.799 212.556 381.351 212.424 381.987 212.424C382.707 212.424 383.379 212.616 384.003 213C384.639 213.372 385.149 213.918 385.533 214.638C385.917 215.346 386.109 216.21 386.109 217.23C386.109 217.974 385.989 218.652 385.749 219.264C385.509 219.876 385.185 220.404 384.777 220.848C384.381 221.28 383.931 221.616 383.427 221.856C382.923 222.096 382.407 222.216 381.879 222.216ZM381.447 220.776C382.035 220.776 382.551 220.632 382.995 220.344C383.451 220.056 383.805 219.648 384.057 219.12C384.321 218.592 384.453 217.98 384.453 217.284C384.453 216.564 384.321 215.946 384.057 215.43C383.805 214.914 383.463 214.518 383.031 214.242C382.611 213.966 382.143 213.828 381.627 213.828C381.111 213.828 380.643 213.96 380.223 214.224C379.815 214.476 379.503 214.752 379.287 215.052V220.056C379.563 220.272 379.887 220.446 380.259 220.578C380.631 220.71 381.027 220.776 381.447 220.776ZM402.589 222.18L401.185 218.58H395.353L393.949 222.144L392.491 221.55L397.423 209.4H399.295L404.155 221.55L402.589 222.18ZM395.893 217.14H400.627L398.269 211.092L395.893 217.14ZM405.954 222V209.436C406.446 209.376 406.986 209.334 407.574 209.31C408.174 209.274 408.792 209.256 409.428 209.256C410.472 209.256 411.36 209.424 412.092 209.76C412.824 210.084 413.382 210.534 413.766 211.11C414.15 211.686 414.342 212.346 414.342 213.09C414.342 213.99 414.12 214.752 413.676 215.376C413.232 216 412.614 216.48 411.822 216.816C411.03 217.14 410.112 217.302 409.068 217.302C408.564 217.302 408.096 217.284 407.664 217.248V222H405.954ZM409.284 215.88C410.352 215.88 411.18 215.64 411.768 215.16C412.356 214.68 412.65 214.038 412.65 213.234C412.65 212.454 412.368 211.836 411.804 211.38C411.24 210.924 410.436 210.696 409.392 210.696C409.068 210.696 408.762 210.702 408.474 210.714C408.186 210.726 407.916 210.744 407.664 210.768V215.79C407.856 215.814 408.09 215.838 408.366 215.862C408.642 215.874 408.948 215.88 409.284 215.88ZM416.413 222V209.4H418.123V222H416.413ZM422.45 222.216C422.126 222.216 421.844 222.096 421.604 221.856C421.364 221.616 421.244 221.334 421.244 221.01C421.244 220.638 421.352 220.344 421.568 220.128C421.784 219.912 422.078 219.804 422.45 219.804C422.762 219.804 423.038 219.924 423.278 220.164C423.53 220.404 423.656 220.686 423.656 221.01C423.656 221.37 423.542 221.664 423.314 221.892C423.086 222.108 422.798 222.216 422.45 222.216ZM426.766 222V209.4H429.034L434.596 219.876V209.4H436.216V222H433.984L428.386 211.596V222H426.766ZM439.458 222V209.4H447.018V210.876H441.168V214.71H446.208V216.15H441.168V220.524H447.018V222H439.458ZM451.872 222V210.912H448.002V209.4H457.452V210.912H453.582V222H451.872ZM469.489 222.216C468.397 222.216 467.431 221.958 466.591 221.442C465.751 220.914 465.097 220.17 464.629 219.21C464.161 218.238 463.927 217.086 463.927 215.754C463.927 214.47 464.161 213.336 464.629 212.352C465.109 211.356 465.781 210.582 466.645 210.03C467.521 209.466 468.541 209.184 469.705 209.184C470.305 209.184 470.851 209.244 471.343 209.364C471.835 209.472 472.297 209.628 472.729 209.832L472.207 211.272C471.835 211.092 471.451 210.948 471.055 210.84C470.671 210.732 470.215 210.678 469.687 210.678C468.919 210.678 468.229 210.876 467.617 211.272C467.017 211.668 466.543 212.238 466.195 212.982C465.847 213.726 465.673 214.626 465.673 215.682C465.673 216.69 465.841 217.572 466.177 218.328C466.525 219.084 466.999 219.672 467.599 220.092C468.211 220.512 468.907 220.722 469.687 220.722C470.275 220.722 470.785 220.65 471.217 220.506C471.649 220.362 472.069 220.176 472.477 219.948L472.999 221.37C472.555 221.61 472.045 221.814 471.469 221.982C470.905 222.138 470.245 222.216 469.489 222.216ZM478.552 222.216C477.664 222.216 476.866 222.012 476.158 221.604C475.45 221.184 474.892 220.608 474.484 219.876C474.088 219.132 473.89 218.28 473.89 217.32C473.89 216.312 474.094 215.442 474.502 214.71C474.91 213.978 475.468 213.414 476.176 213.018C476.884 212.622 477.676 212.424 478.552 212.424C479.428 212.424 480.214 212.622 480.91 213.018C481.618 213.414 482.176 213.978 482.584 214.71C483.004 215.43 483.214 216.288 483.214 217.284C483.214 218.28 483.01 219.15 482.602 219.894C482.194 220.626 481.636 221.196 480.928 221.604C480.232 222.012 479.44 222.216 478.552 222.216ZM478.552 220.776C479.5 220.776 480.238 220.458 480.766 219.822C481.294 219.174 481.558 218.34 481.558 217.32C481.558 216.696 481.426 216.126 481.162 215.61C480.898 215.082 480.538 214.662 480.082 214.35C479.638 214.026 479.128 213.864 478.552 213.864C477.604 213.864 476.866 214.176 476.338 214.8C475.81 215.424 475.546 216.252 475.546 217.284C475.546 217.908 475.678 218.49 475.942 219.03C476.206 219.558 476.56 219.984 477.004 220.308C477.46 220.62 477.976 220.776 478.552 220.776ZM485.368 222V212.64H486.934V214.674C487.09 214.278 487.3 213.912 487.564 213.576C487.828 213.228 488.158 212.952 488.554 212.748C488.95 212.532 489.412 212.424 489.94 212.424C490.12 212.424 490.3 212.436 490.48 212.46C490.66 212.472 490.81 212.496 490.93 212.532L490.444 214.206C490.216 214.11 489.946 214.062 489.634 214.062C489.19 214.062 488.764 214.188 488.356 214.44C487.96 214.692 487.63 215.082 487.366 215.61C487.114 216.138 486.988 216.81 486.988 217.626V222H485.368ZM495.756 222.216C494.412 222.216 493.344 221.79 492.552 220.938C491.772 220.074 491.382 218.868 491.382 217.32C491.382 216.384 491.556 215.55 491.904 214.818C492.264 214.074 492.762 213.492 493.398 213.072C494.034 212.64 494.772 212.424 495.612 212.424C496.512 212.424 497.256 212.622 497.844 213.018C498.444 213.402 498.894 213.924 499.194 214.584C499.494 215.244 499.644 215.97 499.644 216.762C499.644 217.182 499.626 217.59 499.59 217.986H493.038C493.146 218.862 493.452 219.546 493.956 220.038C494.46 220.53 495.126 220.776 495.954 220.776C496.494 220.776 496.98 220.722 497.412 220.614C497.844 220.494 498.258 220.344 498.654 220.164L499.032 221.55C498.6 221.742 498.114 221.898 497.574 222.018C497.034 222.15 496.428 222.216 495.756 222.216ZM493.02 216.672H498.15C498.15 215.76 497.922 215.058 497.466 214.566C497.01 214.074 496.38 213.828 495.576 213.828C494.88 213.828 494.304 214.074 493.848 214.566C493.392 215.046 493.116 215.748 493.02 216.672ZM508.352 222V220.56H510.926V211.47L508.514 213.288L507.632 212.082L511.358 209.4H512.546V220.56H514.688V222H508.352ZM521.935 222.216C520.531 222.216 519.463 221.646 518.731 220.506C517.999 219.354 517.633 217.746 517.633 215.682C517.633 213.606 518.005 212.004 518.749 210.876C519.505 209.748 520.579 209.184 521.971 209.184C523.375 209.184 524.443 209.754 525.175 210.894C525.907 212.034 526.273 213.642 526.273 215.718C526.273 217.794 525.895 219.396 525.139 220.524C524.395 221.652 523.327 222.216 521.935 222.216ZM521.953 220.74C522.493 220.74 522.955 220.584 523.339 220.272C523.735 219.948 524.035 219.42 524.239 218.688C524.455 217.956 524.563 216.972 524.563 215.736C524.563 214.08 524.329 212.82 523.861 211.956C523.405 211.092 522.769 210.66 521.953 210.66C521.413 210.66 520.945 210.822 520.549 211.146C520.165 211.458 519.865 211.98 519.649 212.712C519.445 213.432 519.343 214.416 519.343 215.664C519.343 217.32 519.571 218.58 520.027 219.444C520.495 220.308 521.137 220.74 521.953 220.74Z" fill="white" fill-opacity="0.8"/>
<path d="M77.278 222.18L75.874 218.58H70.042L68.638 222.144L67.18 221.55L72.112 209.4H73.984L78.844 221.55L77.278 222.18ZM70.582 217.14H75.316L72.958 211.092L70.582 217.14ZM80.4634 222V212.64H82.0294V214.206C82.3654 213.702 82.7914 213.282 83.3074 212.946C83.8354 212.598 84.4594 212.424 85.1794 212.424C86.2354 212.424 87.0214 212.742 87.5374 213.378C88.0654 214.014 88.3294 214.854 88.3294 215.898V222H86.7094V216.078C86.7094 215.406 86.5474 214.866 86.2234 214.458C85.9114 214.05 85.4734 213.846 84.9094 213.846C84.3574 213.846 83.8354 214.044 83.3434 214.44C82.8514 214.824 82.4314 215.28 82.0834 215.808V222H80.4634ZM94.5538 226.176C94.0018 226.176 93.4618 226.11 92.9338 225.978C92.4178 225.846 91.9558 225.648 91.5478 225.384L92.1418 223.98C92.4298 224.208 92.7658 224.394 93.1498 224.538C93.5338 224.694 94.0018 224.772 94.5538 224.772C95.4058 224.772 96.0718 224.544 96.5518 224.088C97.0438 223.644 97.2898 222.93 97.2898 221.946V220.794C97.0498 221.082 96.7018 221.358 96.2458 221.622C95.8018 221.874 95.2678 222 94.6438 222C93.9358 222 93.2638 221.82 92.6278 221.46C91.9918 221.088 91.4758 220.548 91.0798 219.84C90.6838 219.132 90.4858 218.28 90.4858 217.284C90.4858 216.348 90.6778 215.514 91.0618 214.782C91.4578 214.05 91.9858 213.474 92.6458 213.054C93.3058 212.634 94.0318 212.424 94.8238 212.424C95.3518 212.424 95.8318 212.514 96.2638 212.694C96.6958 212.874 97.0678 213.096 97.3798 213.36V212.64H98.8558V221.784C98.8558 222.816 98.6758 223.656 98.3158 224.304C97.9558 224.952 97.4518 225.426 96.8038 225.726C96.1678 226.026 95.4178 226.176 94.5538 226.176ZM95.0038 220.56C95.4838 220.56 95.9158 220.452 96.2998 220.236C96.6838 220.02 96.9958 219.768 97.2358 219.48V214.584C96.9718 214.392 96.6538 214.218 96.2818 214.062C95.9098 213.906 95.4778 213.828 94.9858 213.828C94.4938 213.828 94.0318 213.96 93.5998 214.224C93.1678 214.488 92.8138 214.872 92.5378 215.376C92.2738 215.868 92.1418 216.474 92.1418 217.194C92.1418 217.878 92.2738 218.472 92.5378 218.976C92.8138 219.48 93.1678 219.87 93.5998 220.146C94.0318 220.422 94.4998 220.56 95.0038 220.56ZM104.705 222.216C104.165 222.216 103.655 222.102 103.175 221.874C102.695 221.646 102.305 221.28 102.005 220.776C101.705 220.26 101.555 219.576 101.555 218.724V212.64H103.175V218.508C103.175 219.24 103.331 219.804 103.643 220.2C103.955 220.584 104.411 220.776 105.011 220.776C105.503 220.776 105.977 220.68 106.433 220.488C106.901 220.284 107.315 220.014 107.675 219.678V212.64H109.295V219.57C109.295 220.086 109.403 220.428 109.619 220.596C109.847 220.752 110.093 220.83 110.357 220.83L110.015 222.09C108.899 222.09 108.209 221.646 107.945 220.758C107.525 221.19 107.039 221.544 106.487 221.82C105.935 222.084 105.341 222.216 104.705 222.216ZM115.352 222.216C114.8 222.216 114.302 222.114 113.858 221.91C113.414 221.694 113.06 221.352 112.796 220.884C112.544 220.416 112.418 219.81 112.418 219.066V208.68H114.038V218.904C114.038 219.552 114.17 220.032 114.434 220.344C114.71 220.656 115.088 220.812 115.568 220.812C115.796 220.812 116.018 220.788 116.234 220.74C116.462 220.68 116.654 220.614 116.81 220.542L117.206 221.856C116.99 221.952 116.72 222.036 116.396 222.108C116.084 222.18 115.736 222.216 115.352 222.216ZM122.049 222.216C121.269 222.216 120.561 222.018 119.925 221.622C119.289 221.226 118.779 220.668 118.395 219.948C118.023 219.216 117.837 218.358 117.837 217.374C117.837 216.438 118.023 215.598 118.395 214.854C118.779 214.11 119.301 213.522 119.961 213.09C120.633 212.646 121.401 212.424 122.265 212.424C122.805 212.424 123.291 212.52 123.723 212.712C124.167 212.892 124.551 213.12 124.875 213.396V212.64H126.351V219.732C126.351 220.188 126.459 220.488 126.675 220.632C126.903 220.764 127.149 220.83 127.413 220.83L127.071 222.09C125.919 222.09 125.223 221.622 124.983 220.686C124.707 221.07 124.329 221.424 123.849 221.748C123.381 222.06 122.781 222.216 122.049 222.216ZM122.409 220.776C122.865 220.776 123.297 220.668 123.705 220.452C124.113 220.224 124.455 219.942 124.731 219.606V214.584C124.407 214.356 124.047 214.176 123.651 214.044C123.267 213.9 122.859 213.828 122.427 213.828C121.851 213.828 121.341 213.978 120.897 214.278C120.465 214.566 120.123 214.974 119.871 215.502C119.619 216.018 119.493 216.624 119.493 217.32C119.493 217.992 119.619 218.592 119.871 219.12C120.123 219.636 120.471 220.044 120.915 220.344C121.359 220.632 121.857 220.776 122.409 220.776ZM129.577 222V212.64H131.143V214.674C131.299 214.278 131.509 213.912 131.773 213.576C132.037 213.228 132.367 212.952 132.763 212.748C133.159 212.532 133.621 212.424 134.149 212.424C134.329 212.424 134.509 212.436 134.689 212.46C134.869 212.472 135.019 212.496 135.139 212.532L134.653 214.206C134.425 214.11 134.155 214.062 133.843 214.062C133.399 214.062 132.973 214.188 132.565 214.44C132.169 214.692 131.839 215.082 131.575 215.61C131.323 216.138 131.197 216.81 131.197 217.626V222H129.577ZM142.307 222C142.271 221.784 142.253 221.562 142.253 221.334C142.253 220.554 142.385 219.858 142.649 219.246C142.925 218.622 143.279 218.058 143.711 217.554C144.143 217.038 144.599 216.564 145.079 216.132C145.571 215.688 146.027 215.268 146.447 214.872C146.879 214.464 147.233 214.056 147.509 213.648C147.785 213.24 147.923 212.814 147.923 212.37C147.923 211.866 147.737 211.452 147.365 211.128C146.993 210.792 146.513 210.624 145.925 210.624C145.421 210.624 144.959 210.726 144.539 210.93C144.131 211.122 143.747 211.386 143.387 211.722L142.487 210.624C142.967 210.192 143.495 209.844 144.071 209.58C144.659 209.316 145.337 209.184 146.105 209.184C146.813 209.184 147.431 209.322 147.959 209.598C148.487 209.862 148.895 210.228 149.183 210.696C149.483 211.164 149.633 211.686 149.633 212.262C149.633 212.838 149.507 213.372 149.255 213.864C149.003 214.356 148.679 214.818 148.283 215.25C147.887 215.682 147.461 216.102 147.005 216.51C146.549 216.906 146.111 217.314 145.691 217.734C145.271 218.154 144.911 218.592 144.611 219.048C144.323 219.504 144.143 219.996 144.071 220.524H149.615V222H142.307ZM154.108 222V220.56H156.682V211.47L154.27 213.288L153.388 212.082L157.114 209.4H158.302V220.56H160.444V222H154.108Z" fill="white" fill-opacity="0.8"/>
<path d="M37.26 85V75.2H43.07V76.348H38.59V79.344H42.328V80.436H38.59V85H37.26ZM44.6122 85V77.72H45.8302V79.302C45.9515 78.994 46.1149 78.7093 46.3202 78.448C46.5255 78.1773 46.7822 77.9627 47.0902 77.804C47.3982 77.636 47.7575 77.552 48.1682 77.552C48.3082 77.552 48.4482 77.5613 48.5882 77.58C48.7282 77.5893 48.8449 77.608 48.9382 77.636L48.5602 78.938C48.3829 78.8633 48.1729 78.826 47.9302 78.826C47.5849 78.826 47.2535 78.924 46.9362 79.12C46.6282 79.316 46.3715 79.6193 46.1662 80.03C45.9702 80.4407 45.8722 80.9633 45.8722 81.598V85H44.6122ZM52.8462 85.168C52.1555 85.168 51.5348 85.0093 50.9842 84.692C50.4335 84.3653 49.9995 83.9173 49.6822 83.348C49.3742 82.7693 49.2202 82.1067 49.2202 81.36C49.2202 80.576 49.3788 79.8993 49.6962 79.33C50.0135 78.7607 50.4475 78.322 50.9982 78.014C51.5488 77.706 52.1648 77.552 52.8462 77.552C53.5275 77.552 54.1388 77.706 54.6802 78.014C55.2308 78.322 55.6648 78.7607 55.9822 79.33C56.3088 79.89 56.4722 80.5573 56.4722 81.332C56.4722 82.1067 56.3135 82.7833 55.9962 83.362C55.6788 83.9313 55.2448 84.3747 54.6942 84.692C54.1528 85.0093 53.5368 85.168 52.8462 85.168ZM52.8462 84.048C53.5835 84.048 54.1575 83.8007 54.5682 83.306C54.9788 82.802 55.1842 82.1533 55.1842 81.36C55.1842 80.8747 55.0815 80.4313 54.8762 80.03C54.6708 79.6193 54.3908 79.2927 54.0362 79.05C53.6908 78.798 53.2942 78.672 52.8462 78.672C52.1088 78.672 51.5348 78.9147 51.1242 79.4C50.7135 79.8853 50.5082 80.5293 50.5082 81.332C50.5082 81.8173 50.6108 82.27 50.8162 82.69C51.0215 83.1007 51.2968 83.432 51.6422 83.684C51.9968 83.9267 52.3982 84.048 52.8462 84.048ZM58.1473 85V77.72H59.3653V78.938C59.6267 78.546 59.958 78.2193 60.3593 77.958C60.77 77.6873 61.2553 77.552 61.8153 77.552C62.6367 77.552 63.248 77.7993 63.6493 78.294C64.06 78.7887 64.2653 79.442 64.2653 80.254V85H63.0053V80.394C63.0053 79.8713 62.8793 79.4513 62.6273 79.134C62.3847 78.8167 62.044 78.658 61.6053 78.658C61.176 78.658 60.77 78.812 60.3873 79.12C60.0047 79.4187 59.678 79.7733 59.4073 80.184V85H58.1473ZM68.9805 85.168C68.2805 85.168 67.7252 84.9393 67.3145 84.482C66.9132 84.0153 66.7125 83.3527 66.7125 82.494V79.078H65.4525V77.986H66.7405L67.0065 75.69H67.9725V77.986H69.9885V79.078H67.9725V82.592C67.9725 83.1333 68.0845 83.5113 68.3085 83.726C68.5418 83.9407 68.8172 84.048 69.1345 84.048C69.3678 84.048 69.5872 84.0107 69.7925 83.936C70.0072 83.8613 70.2032 83.7727 70.3805 83.67L70.7305 84.678C70.5438 84.79 70.2918 84.8973 69.9745 85C69.6572 85.112 69.3258 85.168 68.9805 85.168ZM74.6355 85.168C73.5902 85.168 72.7595 84.8367 72.1435 84.174C71.5368 83.502 71.2335 82.564 71.2335 81.36C71.2335 80.632 71.3688 79.9833 71.6395 79.414C71.9195 78.8353 72.3068 78.3827 72.8015 78.056C73.2962 77.72 73.8702 77.552 74.5235 77.552C75.2235 77.552 75.8022 77.706 76.2595 78.014C76.7262 78.3127 77.0762 78.7187 77.3095 79.232C77.5428 79.7453 77.6595 80.31 77.6595 80.926C77.6595 81.2527 77.6455 81.57 77.6175 81.878H72.5215C72.6055 82.5593 72.8435 83.0913 73.2355 83.474C73.6275 83.8567 74.1455 84.048 74.7895 84.048C75.2095 84.048 75.5875 84.006 75.9235 83.922C76.2595 83.8287 76.5815 83.712 76.8895 83.572L77.1835 84.65C76.8475 84.7993 76.4695 84.9207 76.0495 85.014C75.6295 85.1167 75.1582 85.168 74.6355 85.168ZM72.5075 80.856H76.4975C76.4975 80.1467 76.3202 79.6007 75.9655 79.218C75.6108 78.8353 75.1208 78.644 74.4955 78.644C73.9542 78.644 73.5062 78.8353 73.1515 79.218C72.7968 79.5913 72.5822 80.1373 72.5075 80.856ZM79.3388 85V77.72H80.5568V78.938C80.8181 78.546 81.1494 78.2193 81.5508 77.958C81.9614 77.6873 82.4468 77.552 83.0068 77.552C83.8281 77.552 84.4394 77.7993 84.8408 78.294C85.2514 78.7887 85.4568 79.442 85.4568 80.254V85H84.1968V80.394C84.1968 79.8713 84.0708 79.4513 83.8188 79.134C83.5761 78.8167 83.2354 78.658 82.7968 78.658C82.3674 78.658 81.9614 78.812 81.5788 79.12C81.1961 79.4187 80.8694 79.7733 80.5988 80.184V85H79.3388ZM90.3819 85.168C89.7846 85.168 89.2386 85.014 88.7439 84.706C88.2492 84.398 87.8572 83.964 87.5679 83.404C87.2786 82.8347 87.1339 82.1673 87.1339 81.402C87.1339 80.6647 87.2786 80.0067 87.5679 79.428C87.8666 78.8493 88.2586 78.392 88.7439 78.056C89.2386 77.72 89.7799 77.552 90.3679 77.552C90.8532 77.552 91.2686 77.65 91.6139 77.846C91.9686 78.042 92.2439 78.2427 92.4399 78.448V74.64H93.6999V83.236C93.6999 83.5907 93.7839 83.824 93.9519 83.936C94.1292 84.0387 94.3206 84.09 94.5259 84.09L94.2599 85.07C93.3732 85.07 92.8319 84.7153 92.6359 84.006C92.4306 84.2953 92.1412 84.5613 91.7679 84.804C91.4039 85.0467 90.9419 85.168 90.3819 85.168ZM90.6619 84.048C91.0072 84.048 91.3339 83.9687 91.6419 83.81C91.9592 83.642 92.2252 83.4273 92.4399 83.166V79.554C92.2626 79.33 92.0152 79.1247 91.6979 78.938C91.3806 78.742 91.0306 78.644 90.6479 78.644C90.1999 78.644 89.8079 78.7653 89.4719 79.008C89.1359 79.2507 88.8746 79.5773 88.6879 79.988C88.5106 80.3893 88.4219 80.8467 88.4219 81.36C88.4219 81.8733 88.5199 82.3353 88.7159 82.746C88.9119 83.1473 89.1779 83.4647 89.5139 83.698C89.8592 83.9313 90.2419 84.048 90.6619 84.048Z" fill="#A4FFFF" fill-opacity="0.8"/>
<path d="M320.088 86.112C319.519 86.112 318.977 86.098 318.464 86.07C317.96 86.042 317.559 86.0093 317.26 85.972V76.228C317.587 76.1907 317.993 76.158 318.478 76.13C318.963 76.102 319.519 76.088 320.144 76.088C321.339 76.088 322.258 76.3167 322.902 76.774C323.546 77.222 323.868 77.8333 323.868 78.608C323.868 79.1213 323.728 79.56 323.448 79.924C323.177 80.2787 322.781 80.5727 322.258 80.806C322.893 81.03 323.373 81.3427 323.7 81.744C324.027 82.136 324.19 82.6213 324.19 83.2C324.19 84.0867 323.84 84.796 323.14 85.328C322.44 85.8507 321.423 86.112 320.088 86.112ZM318.59 80.428H320.13C320.867 80.428 321.451 80.274 321.88 79.966C322.319 79.658 322.538 79.2613 322.538 78.776C322.538 78.2533 322.323 77.8567 321.894 77.586C321.465 77.306 320.877 77.166 320.13 77.166C319.822 77.166 319.542 77.1753 319.29 77.194C319.038 77.2033 318.805 77.2173 318.59 77.236V80.428ZM320.186 85.006C321.017 85.006 321.665 84.8567 322.132 84.558C322.599 84.2593 322.832 83.8253 322.832 83.256C322.832 82.696 322.603 82.2573 322.146 81.94C321.689 81.6227 321.035 81.464 320.186 81.464H318.59V84.922C319.085 84.978 319.617 85.006 320.186 85.006ZM328.724 86.168C328.118 86.168 327.567 86.014 327.072 85.706C326.578 85.398 326.181 84.964 325.882 84.404C325.593 83.8347 325.448 83.1673 325.448 82.402C325.448 81.674 325.593 81.0207 325.882 80.442C326.181 79.8633 326.587 79.406 327.1 79.07C327.623 78.7247 328.22 78.552 328.892 78.552C329.312 78.552 329.69 78.6267 330.026 78.776C330.372 78.916 330.67 79.0933 330.922 79.308V78.72H332.07V84.236C332.07 84.5907 332.154 84.824 332.322 84.936C332.5 85.0387 332.691 85.09 332.896 85.09L332.63 86.07C331.734 86.07 331.193 85.706 331.006 84.978C330.792 85.2767 330.498 85.552 330.124 85.804C329.76 86.0467 329.294 86.168 328.724 86.168ZM329.004 85.048C329.359 85.048 329.695 84.964 330.012 84.796C330.33 84.6187 330.596 84.3993 330.81 84.138V80.232C330.558 80.0547 330.278 79.9147 329.97 79.812C329.672 79.7 329.354 79.644 329.018 79.644C328.57 79.644 328.174 79.7607 327.828 79.994C327.492 80.218 327.226 80.5353 327.03 80.946C326.834 81.3473 326.736 81.8187 326.736 82.36C326.736 82.8827 326.834 83.3493 327.03 83.76C327.226 84.1613 327.497 84.4787 327.842 84.712C328.188 84.936 328.575 85.048 329.004 85.048ZM337.382 86.168C336.692 86.168 336.085 86.0093 335.562 85.692C335.049 85.3653 334.652 84.9173 334.372 84.348C334.092 83.7693 333.952 83.1067 333.952 82.36C333.952 81.66 334.092 81.0207 334.372 80.442C334.662 79.8633 335.072 79.406 335.604 79.07C336.136 78.7247 336.762 78.552 337.48 78.552C337.891 78.552 338.25 78.5893 338.558 78.664C338.876 78.7387 339.179 78.846 339.468 78.986L339.09 80.05C338.829 79.9193 338.577 79.826 338.334 79.77C338.101 79.7047 337.84 79.672 337.55 79.672C336.897 79.672 336.346 79.91 335.898 80.386C335.46 80.8527 335.24 81.5013 335.24 82.332C335.24 82.836 335.334 83.2933 335.52 83.704C335.707 84.1147 335.964 84.4413 336.29 84.684C336.626 84.9267 337.018 85.048 337.466 85.048C337.821 85.048 338.124 85.0107 338.376 84.936C338.628 84.852 338.899 84.7353 339.188 84.586L339.58 85.65C339.291 85.8087 338.964 85.9347 338.6 86.028C338.246 86.1213 337.84 86.168 337.382 86.168ZM346.072 86.14L342.306 82.262V86H341.046V75.64H342.306V81.562L345.596 78.58L346.324 79.378L343.51 81.87L346.94 85.3L346.072 86.14ZM350.903 86.168C349.858 86.168 349.027 85.8367 348.411 85.174C347.804 84.502 347.501 83.564 347.501 82.36C347.501 81.632 347.636 80.9833 347.907 80.414C348.187 79.8353 348.574 79.3827 349.069 79.056C349.564 78.72 350.138 78.552 350.791 78.552C351.491 78.552 352.07 78.706 352.527 79.014C352.994 79.3127 353.344 79.7187 353.577 80.232C353.81 80.7453 353.927 81.31 353.927 81.926C353.927 82.2527 353.913 82.57 353.885 82.878H348.789C348.873 83.5593 349.111 84.0913 349.503 84.474C349.895 84.8567 350.413 85.048 351.057 85.048C351.477 85.048 351.855 85.006 352.191 84.922C352.527 84.8287 352.849 84.712 353.157 84.572L353.451 85.65C353.115 85.7993 352.737 85.9207 352.317 86.014C351.897 86.1167 351.426 86.168 350.903 86.168ZM348.775 81.856H352.765C352.765 81.1467 352.588 80.6007 352.233 80.218C351.878 79.8353 351.388 79.644 350.763 79.644C350.222 79.644 349.774 79.8353 349.419 80.218C349.064 80.5913 348.85 81.1373 348.775 81.856ZM355.606 86V78.72H356.824V79.938C357.086 79.546 357.417 79.2193 357.818 78.958C358.229 78.6873 358.714 78.552 359.274 78.552C360.096 78.552 360.707 78.7993 361.108 79.294C361.519 79.7887 361.724 80.442 361.724 81.254V86H360.464V81.394C360.464 80.8713 360.338 80.4513 360.086 80.134C359.844 79.8167 359.503 79.658 359.064 79.658C358.635 79.658 358.229 79.812 357.846 80.12C357.464 80.4187 357.137 80.7733 356.866 81.184V86H355.606ZM366.649 86.168C366.052 86.168 365.506 86.014 365.011 85.706C364.517 85.398 364.125 84.964 363.835 84.404C363.546 83.8347 363.401 83.1673 363.401 82.402C363.401 81.6647 363.546 81.0067 363.835 80.428C364.134 79.8493 364.526 79.392 365.011 79.056C365.506 78.72 366.047 78.552 366.635 78.552C367.121 78.552 367.536 78.65 367.881 78.846C368.236 79.042 368.511 79.2427 368.707 79.448V75.64H369.967V84.236C369.967 84.5907 370.051 84.824 370.219 84.936C370.397 85.0387 370.588 85.09 370.793 85.09L370.527 86.07C369.641 86.07 369.099 85.7153 368.903 85.006C368.698 85.2953 368.409 85.5613 368.035 85.804C367.671 86.0467 367.209 86.168 366.649 86.168ZM366.929 85.048C367.275 85.048 367.601 84.9687 367.909 84.81C368.227 84.642 368.493 84.4273 368.707 84.166V80.554C368.53 80.33 368.283 80.1247 367.965 79.938C367.648 79.742 367.298 79.644 366.915 79.644C366.467 79.644 366.075 79.7653 365.739 80.008C365.403 80.2507 365.142 80.5773 364.955 80.988C364.778 81.3893 364.689 81.8467 364.689 82.36C364.689 82.8733 364.787 83.3353 364.983 83.746C365.179 84.1473 365.445 84.4647 365.781 84.698C366.127 84.9313 366.509 85.048 366.929 85.048Z" fill="#A4FFFF" fill-opacity="0.8"/>
<path d="M353.324 285.502L239.875 285.471" stroke="#D8FC73" stroke-linecap="round" stroke-linejoin="round"/>
<path d="M238.46 282.04C236.549 282.04 235 283.589 235 285.5C235 287.411 236.549 288.96 238.46 288.96C240.371 288.96 241.921 287.411 241.921 285.5C241.921 283.589 240.371 282.04 238.46 282.04Z" fill="#233345" stroke="#D8FC73"/>
<path d="M347.239 294L354 285.5L347.239 277" stroke="#D8FC73" stroke-linecap="round" stroke-linejoin="round"/>
<path d="M210.566 240.427H383.894C392.49 240.427 399.459 247.397 399.459 255.994C399.459 264.591 392.49 271.56 383.894 271.56H210.566C201.97 271.56 195 264.591 195 255.994C195 247.397 201.969 240.427 210.566 240.427Z" stroke="#A4FFFF" stroke-width="1.01426"/>
<path d="M210.566 240.427H383.894C392.49 240.427 399.459 247.397 399.459 255.994C399.459 264.591 392.49 271.56 383.894 271.56H210.566C201.97 271.56 195 264.591 195 255.994C195 247.397 201.969 240.427 210.566 240.427Z" fill="#182534"/>
<path d="M231.421 262.216C230.869 262.216 230.347 262.12 229.855 261.928C229.375 261.736 228.973 261.484 228.649 261.172L229.477 259.858C229.717 260.11 230.005 260.32 230.341 260.488C230.677 260.656 231.019 260.74 231.367 260.74C231.943 260.74 232.399 260.536 232.735 260.128C233.071 259.708 233.239 259.006 233.239 258.022V249.4H234.949V257.842C234.949 259.366 234.625 260.476 233.977 261.172C233.329 261.868 232.477 262.216 231.421 262.216ZM241.135 262.216C240.259 262.216 239.461 262.102 238.741 261.874C238.021 261.634 237.415 261.322 236.923 260.938L237.787 259.498C238.219 259.858 238.705 260.152 239.245 260.38C239.785 260.608 240.415 260.722 241.135 260.722C241.999 260.722 242.683 260.542 243.187 260.182C243.691 259.822 243.943 259.336 243.943 258.724C243.943 258.376 243.871 258.07 243.727 257.806C243.583 257.53 243.301 257.266 242.881 257.014C242.473 256.75 241.867 256.468 241.063 256.168C240.199 255.832 239.509 255.496 238.993 255.16C238.477 254.812 238.105 254.422 237.877 253.99C237.661 253.546 237.553 253.024 237.553 252.424C237.553 251.824 237.715 251.284 238.039 250.804C238.375 250.312 238.861 249.922 239.497 249.634C240.145 249.334 240.925 249.184 241.837 249.184C242.581 249.184 243.247 249.262 243.835 249.418C244.435 249.562 245.017 249.772 245.581 250.048L244.951 251.506C244.543 251.266 244.063 251.068 243.511 250.912C242.971 250.744 242.401 250.66 241.801 250.66C241.009 250.66 240.385 250.816 239.929 251.128C239.473 251.44 239.245 251.842 239.245 252.334C239.245 252.646 239.311 252.922 239.443 253.162C239.575 253.402 239.833 253.636 240.217 253.864C240.613 254.092 241.201 254.35 241.981 254.638C242.917 254.986 243.655 255.352 244.195 255.736C244.747 256.12 245.137 256.54 245.365 256.996C245.593 257.44 245.707 257.95 245.707 258.526C245.707 259.306 245.509 259.972 245.113 260.524C244.729 261.076 244.189 261.496 243.493 261.784C242.809 262.072 242.023 262.216 241.135 262.216ZM253.454 262.216C252.518 262.216 251.684 262.048 250.952 261.712C250.22 261.364 249.596 260.896 249.08 260.308C248.576 259.708 248.186 259.012 247.91 258.22C247.646 257.428 247.514 256.582 247.514 255.682C247.514 254.446 247.748 253.342 248.216 252.37C248.696 251.386 249.38 250.612 250.268 250.048C251.156 249.472 252.218 249.184 253.454 249.184C254.378 249.184 255.206 249.352 255.938 249.688C256.682 250.024 257.312 250.492 257.828 251.092C258.344 251.692 258.734 252.382 258.998 253.162C259.274 253.942 259.412 254.782 259.412 255.682C259.412 256.582 259.274 257.428 258.998 258.22C258.734 259.012 258.344 259.708 257.828 260.308C257.312 260.896 256.688 261.364 255.956 261.712C255.224 262.048 254.39 262.216 253.454 262.216ZM253.454 260.74C254.378 260.74 255.152 260.518 255.776 260.074C256.4 259.63 256.868 259.03 257.18 258.274C257.504 257.506 257.666 256.642 257.666 255.682C257.666 255.034 257.57 254.41 257.378 253.81C257.186 253.21 256.91 252.676 256.55 252.208C256.19 251.728 255.746 251.35 255.218 251.074C254.702 250.798 254.114 250.66 253.454 250.66C252.578 250.66 251.822 250.882 251.186 251.326C250.562 251.77 250.082 252.37 249.746 253.126C249.422 253.882 249.26 254.734 249.26 255.682C249.26 256.33 249.35 256.96 249.53 257.572C249.722 258.172 249.998 258.712 250.358 259.192C250.718 259.672 251.156 260.05 251.672 260.326C252.2 260.602 252.794 260.74 253.454 260.74ZM261.927 262V249.4H264.195L269.757 259.876V249.4H271.377V262H269.145L263.547 251.596V262H261.927ZM282.085 262L278.665 249.814L280.357 249.274L283.201 260.182L285.883 250.714H288.025L290.689 260.182L293.515 249.328L295.099 249.814L291.697 262H289.573L286.909 252.532L284.209 262H282.085ZM296.995 262V249.4H304.555V250.876H298.705V254.71H303.745V256.15H298.705V260.524H304.555V262H296.995ZM310.616 262.144C309.884 262.144 309.188 262.126 308.528 262.09C307.88 262.054 307.364 262.012 306.98 261.964V249.436C307.4 249.388 307.922 249.346 308.546 249.31C309.17 249.274 309.884 249.256 310.688 249.256C312.224 249.256 313.406 249.55 314.234 250.138C315.062 250.714 315.476 251.5 315.476 252.496C315.476 253.156 315.296 253.72 314.936 254.188C314.588 254.644 314.078 255.022 313.406 255.322C314.222 255.61 314.84 256.012 315.26 256.528C315.68 257.032 315.89 257.656 315.89 258.4C315.89 259.54 315.44 260.452 314.54 261.136C313.64 261.808 312.332 262.144 310.616 262.144ZM308.69 254.836H310.67C311.618 254.836 312.368 254.638 312.92 254.242C313.484 253.846 313.766 253.336 313.766 252.712C313.766 252.04 313.49 251.53 312.938 251.182C312.386 250.822 311.63 250.642 310.67 250.642C310.274 250.642 309.914 250.654 309.59 250.678C309.266 250.69 308.966 250.708 308.69 250.732V254.836ZM310.742 260.722C311.81 260.722 312.644 260.53 313.244 260.146C313.844 259.762 314.144 259.204 314.144 258.472C314.144 257.752 313.85 257.188 313.262 256.78C312.674 256.372 311.834 256.168 310.742 256.168H308.69V260.614C309.326 260.686 310.01 260.722 310.742 260.722ZM326.144 262V250.912H322.274V249.4H331.724V250.912H327.854V262H326.144ZM335.755 262.216C334.867 262.216 334.069 262.012 333.361 261.604C332.653 261.184 332.095 260.608 331.687 259.876C331.291 259.132 331.093 258.28 331.093 257.32C331.093 256.312 331.297 255.442 331.705 254.71C332.113 253.978 332.671 253.414 333.379 253.018C334.087 252.622 334.879 252.424 335.755 252.424C336.631 252.424 337.417 252.622 338.113 253.018C338.821 253.414 339.379 253.978 339.787 254.71C340.207 255.43 340.417 256.288 340.417 257.284C340.417 258.28 340.213 259.15 339.805 259.894C339.397 260.626 338.839 261.196 338.131 261.604C337.435 262.012 336.643 262.216 335.755 262.216ZM335.755 260.776C336.703 260.776 337.441 260.458 337.969 259.822C338.497 259.174 338.761 258.34 338.761 257.32C338.761 256.696 338.629 256.126 338.365 255.61C338.101 255.082 337.741 254.662 337.285 254.35C336.841 254.026 336.331 253.864 335.755 253.864C334.807 253.864 334.069 254.176 333.541 254.8C333.013 255.424 332.749 256.252 332.749 257.284C332.749 257.908 332.881 258.49 333.145 259.03C333.409 259.558 333.763 259.984 334.207 260.308C334.663 260.62 335.179 260.776 335.755 260.776ZM349.033 262.18L344.191 257.194V262H342.571V248.68H344.191V256.294L348.421 252.46L349.357 253.486L345.739 256.69L350.149 261.1L349.033 262.18ZM355.245 262.216C353.901 262.216 352.833 261.79 352.041 260.938C351.261 260.074 350.871 258.868 350.871 257.32C350.871 256.384 351.045 255.55 351.393 254.818C351.753 254.074 352.251 253.492 352.887 253.072C353.523 252.64 354.261 252.424 355.101 252.424C356.001 252.424 356.745 252.622 357.333 253.018C357.933 253.402 358.383 253.924 358.683 254.584C358.983 255.244 359.133 255.97 359.133 256.762C359.133 257.182 359.115 257.59 359.079 257.986H352.527C352.635 258.862 352.941 259.546 353.445 260.038C353.949 260.53 354.615 260.776 355.443 260.776C355.983 260.776 356.469 260.722 356.901 260.614C357.333 260.494 357.747 260.344 358.143 260.164L358.521 261.55C358.089 261.742 357.603 261.898 357.063 262.018C356.523 262.15 355.917 262.216 355.245 262.216ZM352.509 256.672H357.639C357.639 255.76 357.411 255.058 356.955 254.566C356.499 254.074 355.869 253.828 355.065 253.828C354.369 253.828 353.793 254.074 353.337 254.566C352.881 255.046 352.605 255.748 352.509 256.672ZM361.292 262V252.64H362.858V254.206C363.194 253.702 363.62 253.282 364.136 252.946C364.664 252.598 365.288 252.424 366.008 252.424C367.064 252.424 367.85 252.742 368.366 253.378C368.894 254.014 369.158 254.854 369.158 255.898V262H367.538V256.078C367.538 255.406 367.376 254.866 367.052 254.458C366.74 254.05 366.302 253.846 365.738 253.846C365.186 253.846 364.664 254.044 364.172 254.44C363.68 254.824 363.26 255.28 362.912 255.808V262H361.292Z" fill="#A4FFFF" fill-opacity="0.8"/>
<path d="M633.322 18.5C659.181 18.5002 680.144 39.4633 680.144 65.3223C680.143 91.1811 659.181 112.143 633.322 112.144C607.463 112.144 586.5 91.1812 586.5 65.3223C586.5 39.4632 607.463 18.5 633.322 18.5Z" fill="#182534" stroke="#A4FFFF"/>
<g clip-path="url(#clip0_2303_103)">
<path d="M629.836 95.7483C623.829 95.3153 617.892 93.8032 614.251 91.7789C612.176 90.6259 610.596 89.2089 609.976 87.946L609.607 87.1946V63.6253V40.0561L609.899 39.4633C611.204 36.8146 615.367 34.4269 621.179 32.9942C623.152 32.5078 626 32.0235 628.324 31.7792C630.697 31.5298 636.986 31.5677 639.352 31.8462C645.643 32.5852 650.996 34.2397 654.294 36.4647C655.566 37.3227 656.872 38.6957 657.314 39.6407L657.693 40.451L657.661 63.949L657.628 87.4471L657.324 88.0654C657.156 88.4054 656.651 89.0745 656.2 89.5521C653.457 92.4597 647.574 94.6106 639.857 95.5271C638.284 95.7139 631.45 95.8646 629.836 95.7483ZM640.907 75.5526C640.884 75.4923 639.986 74.6923 638.911 73.7747C637.837 72.857 636.911 72.0631 636.855 72.0104C636.798 71.9577 636.997 71.7711 637.296 71.5957C637.595 71.4203 638.168 70.9324 638.57 70.5114C639.744 69.2804 640.298 67.7598 640.298 65.768C640.298 63.8071 639.7 62.225 638.504 61.0173C637.298 59.8 635.913 59.2769 633.897 59.2769C630.789 59.2769 628.402 61.0905 627.64 64.0307C627.378 65.042 627.379 67.0855 627.643 67.9823C628.33 70.3214 630.201 72.0202 632.53 72.4191C633.318 72.5541 633.425 72.6123 633.962 73.1997C634.281 73.5488 634.937 74.2456 635.418 74.7482L636.294 75.662H638.621C639.902 75.662 640.93 75.6128 640.907 75.5526ZM632.925 69.0355C632.364 68.7433 632.153 68.5166 631.833 67.867C631.586 67.3653 631.544 67.0799 631.541 65.8941C631.538 64.6891 631.577 64.4287 631.834 63.9055C632.256 63.0493 632.837 62.644 633.736 62.579C634.987 62.4882 635.709 63.1022 636.087 64.5777C636.551 66.3868 636.041 68.3101 634.928 68.9484C634.344 69.2832 633.473 69.3212 632.925 69.0355ZM622.608 72.3934C625.048 71.9306 626.433 70.5115 626.433 68.4742C626.433 66.6668 625.539 65.6137 623.067 64.5102C621.652 63.8785 621.14 63.4821 621.14 63.0188C621.14 62.6348 621.626 62.2141 622.192 62.1084C622.745 62.0051 624.212 62.2598 625.077 62.6096L625.803 62.9028V61.2962V59.6895L625.015 59.5148C624.529 59.4068 623.506 59.342 622.337 59.3453C620.682 59.3453 620.358 59.3856 619.735 59.6329C617.916 60.3552 617.052 61.5855 617.066 63.4363C617.079 65.1689 617.993 66.2496 620.268 67.2219C621.61 67.7955 622.148 68.2323 622.148 68.7485C622.148 69.8455 620.32 69.9805 618.385 69.0265C617.855 68.7652 617.379 68.5302 617.327 68.5041C617.275 68.4781 617.233 69.2286 617.233 70.1719C617.233 71.8794 617.234 71.8876 617.544 72.0053C618.708 72.4479 621.281 72.6451 622.608 72.3934ZM650.507 70.8095V69.3601H648.301H646.095V64.3815V59.403H644.142H642.188V65.831V72.259H646.348H650.507V70.8095ZM636.895 45.4094C640.777 45.1402 643.687 44.6318 646.248 43.7756C648.799 42.9226 650.306 41.8905 650.643 40.7654C650.773 40.3318 650.764 40.1674 650.582 39.692C649.768 37.5609 645.222 35.9235 638.274 35.2597C635.302 34.9756 629.897 35.0677 627.064 35.4505C622.74 36.0347 619.231 37.1198 617.671 38.3552C614.515 40.8544 617.853 43.6032 625.614 44.897C628.98 45.458 633.34 45.656 636.895 45.4094Z" fill="#00BCF2"/>
</g>
<path d="M546 259L612 107" stroke="#A4FFFF" stroke-width="1.01426" stroke-linecap="round" stroke-linejoin="round"/>
<defs>
<linearGradient id="paint0_linear_2303_103" x1="48" y1="154.774" x2="261" y2="154.774" gradientUnits="userSpaceOnUse">
<stop stop-color="#F0070C"/>
<stop offset="0.526" stop-color="#CC26D5"/>
<stop offset="1" stop-color="#7702FF"/>
</linearGradient>
<radialGradient id="paint1_radial_2303_103" cx="0" cy="0" r="1" gradientTransform="matrix(-21.04 39.4894 -39.368 -21.1048 114.264 99.6191)" gradientUnits="userSpaceOnUse">
<stop stop-color="#FF41F8"/>
<stop offset="0.707" stop-color="#FF41F8" stop-opacity="0.5"/>
<stop offset="1" stop-color="#FF41F8" stop-opacity="0"/>
</radialGradient>
<linearGradient id="paint2_linear_2303_103" x1="546" y1="259" x2="336" y2="259" gradientUnits="userSpaceOnUse">
<stop offset="0.807692" stop-color="#233345"/>
</linearGradient>
<linearGradient id="paint3_linear_2303_103" x1="259" y1="259" x2="49" y2="259" gradientUnits="userSpaceOnUse">
<stop offset="0.807692" stop-color="#233345"/>
</linearGradient>
<clipPath id="clip0_2303_103">
<rect width="64.1763" height="64.1763" fill="white" transform="translate(601.558 31.613)"/>
</clipPath>
</defs>
</svg>
