<svg width="700" height="400" viewBox="0 0 700 400" fill="none" xmlns="http://www.w3.org/2000/svg">
<rect width="700" height="400" rx="10" fill="#233345"/>
<path d="M323.913 52H86.0875C79.964 52 75 56.5541 75 62.1718V337.828C75 343.446 79.964 348 86.0875 348H323.913C330.036 348 335 343.446 335 337.828V62.1718C335 56.5541 330.036 52 323.913 52Z" fill="#111B26"/>
<path d="M608.913 52H371.087C364.964 52 360 56.5541 360 62.1718V337.828C360 343.446 364.964 348 371.087 348H608.913C615.036 348 620 343.446 620 337.828V62.1718C620 56.5541 615.036 52 608.913 52Z" fill="#111B26"/>
<mask id="mask0_2313_2" style="mask-type:luminance" maskUnits="userSpaceOnUse" x="101" y="102" width="213" height="52">
<path d="M101 102H314V154H101V102Z" fill="white"/>
</mask>
<g mask="url(#mask0_2313_2)">
<path d="M185.305 143.692H191.997L179.803 108.925H172.047L159.854 143.692H166.545L169.403 135.13H182.43L185.305 143.692ZM171.107 130.056L175.792 116.064H176.058L180.744 130.056H171.107ZM198.617 128.418V143.692H192.494V117.63H198.351V122.063H198.652C199.256 120.603 200.214 119.446 201.528 118.591C202.841 117.737 204.474 117.31 206.409 117.31C208.201 117.31 209.763 117.702 211.112 118.467C212.443 119.232 213.49 120.354 214.218 121.814C214.963 123.274 215.318 125.036 215.301 127.119V143.692H209.177V128.045C209.177 126.3 208.734 124.947 207.828 123.95C206.923 122.971 205.699 122.473 204.119 122.473C203.054 122.473 202.096 122.704 201.261 123.184C200.427 123.647 199.788 124.324 199.309 125.214C198.865 126.086 198.617 127.154 198.617 128.418ZM228.807 154C226.606 154 224.725 153.697 223.145 153.11C221.566 152.522 220.306 151.721 219.347 150.724C218.389 149.728 217.714 148.624 217.359 147.413L222.879 146.078C223.128 146.594 223.483 147.093 223.962 147.591C224.441 148.09 225.08 148.517 225.879 148.855C226.677 149.193 227.707 149.354 228.931 149.354C230.671 149.354 232.108 148.926 233.244 148.09C234.38 147.253 234.948 145.865 234.948 143.942V139.011H234.646C234.327 139.651 233.865 140.292 233.262 140.969C232.659 141.645 231.86 142.197 230.884 142.642C229.89 143.087 228.665 143.319 227.174 143.319C225.186 143.319 223.376 142.838 221.743 141.895C220.128 140.951 218.832 139.527 217.892 137.658C216.933 135.771 216.454 133.421 216.454 130.572C216.454 127.724 216.933 125.285 217.892 123.309C218.85 121.333 220.128 119.838 221.761 118.805C223.394 117.773 225.204 117.274 227.192 117.274C228.718 117.274 229.978 117.523 230.955 118.04C231.949 118.556 232.729 119.179 233.315 119.891C233.901 120.603 234.345 121.28 234.646 121.921H234.984V117.613H241.018V144.102C241.018 146.327 240.486 148.179 239.421 149.639C238.356 151.098 236.918 152.184 235.072 152.914C233.227 153.644 231.132 154 228.807 154ZM228.86 138.494C230.156 138.494 231.256 138.174 232.179 137.551C233.085 136.91 233.794 136.002 234.256 134.827C234.735 133.634 234.966 132.21 234.966 130.555C234.966 128.899 234.735 127.475 234.256 126.247C233.794 125.018 233.102 124.057 232.197 123.363C231.292 122.686 230.174 122.33 228.86 122.33C227.547 122.33 226.358 122.686 225.435 123.398C224.53 124.11 223.837 125.089 223.376 126.318C222.915 127.564 222.684 128.97 222.684 130.537C222.684 132.103 222.915 133.528 223.394 134.72C223.855 135.913 224.547 136.839 225.47 137.498C226.376 138.156 227.511 138.494 228.86 138.494ZM259.565 132.727V117.63H265.688V143.692H259.743V139.064H259.477C258.891 140.524 257.932 141.716 256.583 142.642C255.252 143.568 253.602 144.031 251.649 144.031C249.946 144.031 248.437 143.657 247.141 142.891C245.846 142.126 244.816 141.022 244.089 139.545C243.361 138.085 242.988 136.305 242.988 134.222V117.63H249.129V133.278C249.129 134.934 249.573 136.251 250.478 137.213C251.383 138.192 252.572 138.672 254.028 138.672C254.933 138.672 255.803 138.459 256.655 138.014C257.506 137.569 258.199 136.91 258.749 136.038C259.299 135.147 259.565 134.044 259.565 132.727ZM273.817 108.925V143.692H267.694V108.925H273.817V108.925ZM283.544 144.209C281.893 144.209 280.42 143.906 279.106 143.319C277.793 142.731 276.746 141.841 276 140.684C275.237 139.527 274.864 138.085 274.864 136.376C274.864 134.898 275.131 133.688 275.681 132.727C276.231 131.765 276.959 131 277.9 130.412C278.84 129.842 279.887 129.397 281.077 129.095C282.248 128.792 283.472 128.579 284.733 128.436C286.259 128.276 287.484 128.134 288.442 128.009C289.383 127.884 290.075 127.671 290.519 127.404C290.945 127.119 291.175 126.692 291.175 126.104V125.997C291.175 124.716 290.803 123.736 290.039 123.024C289.276 122.33 288.194 121.974 286.774 121.974C285.265 121.974 284.094 122.294 283.206 122.953C282.337 123.612 281.751 124.377 281.431 125.285L275.716 124.466C276.16 122.882 276.906 121.565 277.953 120.478C278.982 119.41 280.26 118.61 281.751 118.075C283.259 117.541 284.91 117.274 286.721 117.274C287.981 117.274 289.223 117.417 290.465 117.719C291.708 118.022 292.844 118.502 293.873 119.179C294.903 119.856 295.719 120.764 296.358 121.921C296.979 123.078 297.299 124.52 297.299 126.247V143.692H291.406V140.114H291.211C290.838 140.844 290.324 141.521 289.649 142.144C288.975 142.767 288.14 143.283 287.129 143.657C286.082 144.031 284.91 144.209 283.544 144.209ZM285.141 139.705C286.366 139.705 287.431 139.456 288.336 138.975C289.241 138.477 289.933 137.836 290.43 137.017C290.927 136.198 291.158 135.308 291.158 134.346V131.267C290.962 131.427 290.643 131.569 290.182 131.712C289.72 131.854 289.223 131.961 288.655 132.068C288.087 132.175 287.537 132.264 286.987 132.335C286.436 132.406 285.957 132.477 285.549 132.531C284.644 132.655 283.81 132.851 283.1 133.136C282.372 133.421 281.804 133.812 281.396 134.311C280.97 134.809 280.775 135.468 280.775 136.251C280.775 137.391 281.183 138.245 282.017 138.815C282.816 139.42 283.863 139.705 285.141 139.705ZM299.162 143.692V117.63H305.108V121.974H305.374C305.854 120.461 306.67 119.304 307.823 118.485C308.977 117.666 310.308 117.256 311.799 117.256C312.136 117.256 312.527 117.274 312.935 117.292C313.361 117.328 313.716 117.363 314 117.417V123.06C313.734 122.971 313.326 122.882 312.775 122.811C312.24 122.741 311.7 122.705 311.16 122.704C310.042 122.704 309.048 122.953 308.161 123.434C307.273 123.914 306.581 124.573 306.067 125.428C305.552 126.282 305.303 127.261 305.303 128.365V143.692H299.162ZM149.169 110.527L147.43 137.925L130.8 102L149.169 110.527ZM137.651 145.953L125.085 153.146L112.519 145.953L115.074 139.74H135.095L137.651 145.953ZM125.085 115.636L131.669 131.694H118.5L125.085 115.636ZM102.722 137.925L101 110.527L119.37 102L102.722 137.925Z" fill="url(#paint0_linear_2313_2)"/>
<path d="M185.305 143.692H191.997L179.803 108.925H172.047L159.854 143.692H166.545L169.403 135.13H182.43L185.305 143.692ZM171.107 130.056L175.792 116.064H176.058L180.744 130.056H171.107ZM198.617 128.418V143.692H192.494V117.63H198.351V122.063H198.652C199.256 120.603 200.214 119.446 201.528 118.591C202.841 117.737 204.474 117.31 206.409 117.31C208.201 117.31 209.763 117.702 211.112 118.467C212.443 119.232 213.49 120.354 214.218 121.814C214.963 123.274 215.318 125.036 215.301 127.119V143.692H209.177V128.045C209.177 126.3 208.734 124.947 207.828 123.95C206.923 122.971 205.699 122.473 204.119 122.473C203.054 122.473 202.096 122.704 201.261 123.184C200.427 123.647 199.788 124.324 199.309 125.214C198.865 126.086 198.617 127.154 198.617 128.418ZM228.807 154C226.606 154 224.725 153.697 223.145 153.11C221.566 152.522 220.306 151.721 219.347 150.724C218.389 149.728 217.714 148.624 217.359 147.413L222.879 146.078C223.128 146.594 223.483 147.093 223.962 147.591C224.441 148.09 225.08 148.517 225.879 148.855C226.677 149.193 227.707 149.354 228.931 149.354C230.671 149.354 232.108 148.926 233.244 148.09C234.38 147.253 234.948 145.865 234.948 143.942V139.011H234.646C234.327 139.651 233.865 140.292 233.262 140.969C232.659 141.645 231.86 142.197 230.884 142.642C229.89 143.087 228.665 143.319 227.174 143.319C225.186 143.319 223.376 142.838 221.743 141.895C220.128 140.951 218.832 139.527 217.892 137.658C216.933 135.771 216.454 133.421 216.454 130.572C216.454 127.724 216.933 125.285 217.892 123.309C218.85 121.333 220.128 119.838 221.761 118.805C223.394 117.773 225.204 117.274 227.192 117.274C228.718 117.274 229.978 117.523 230.955 118.04C231.949 118.556 232.729 119.179 233.315 119.891C233.901 120.603 234.345 121.28 234.646 121.921H234.984V117.613H241.018V144.102C241.018 146.327 240.486 148.179 239.421 149.639C238.356 151.098 236.918 152.184 235.072 152.914C233.227 153.644 231.132 154 228.807 154ZM228.86 138.494C230.156 138.494 231.256 138.174 232.179 137.551C233.085 136.91 233.794 136.002 234.256 134.827C234.735 133.634 234.966 132.21 234.966 130.555C234.966 128.899 234.735 127.475 234.256 126.247C233.794 125.018 233.102 124.057 232.197 123.363C231.292 122.686 230.174 122.33 228.86 122.33C227.547 122.33 226.358 122.686 225.435 123.398C224.53 124.11 223.837 125.089 223.376 126.318C222.915 127.564 222.684 128.97 222.684 130.537C222.684 132.103 222.915 133.528 223.394 134.72C223.855 135.913 224.547 136.839 225.47 137.498C226.376 138.156 227.511 138.494 228.86 138.494ZM259.565 132.727V117.63H265.688V143.692H259.743V139.064H259.477C258.891 140.524 257.932 141.716 256.583 142.642C255.252 143.568 253.602 144.031 251.649 144.031C249.946 144.031 248.437 143.657 247.141 142.891C245.846 142.126 244.816 141.022 244.089 139.545C243.361 138.085 242.988 136.305 242.988 134.222V117.63H249.129V133.278C249.129 134.934 249.573 136.251 250.478 137.213C251.383 138.192 252.572 138.672 254.028 138.672C254.933 138.672 255.803 138.459 256.655 138.014C257.506 137.569 258.199 136.91 258.749 136.038C259.299 135.147 259.565 134.044 259.565 132.727ZM273.817 108.925V143.692H267.694V108.925H273.817V108.925ZM283.544 144.209C281.893 144.209 280.42 143.906 279.106 143.319C277.793 142.731 276.746 141.841 276 140.684C275.237 139.527 274.864 138.085 274.864 136.376C274.864 134.898 275.131 133.688 275.681 132.727C276.231 131.765 276.959 131 277.9 130.412C278.84 129.842 279.887 129.397 281.077 129.095C282.248 128.792 283.472 128.579 284.733 128.436C286.259 128.276 287.484 128.134 288.442 128.009C289.383 127.884 290.075 127.671 290.519 127.404C290.945 127.119 291.175 126.692 291.175 126.104V125.997C291.175 124.716 290.803 123.736 290.039 123.024C289.276 122.33 288.194 121.974 286.774 121.974C285.265 121.974 284.094 122.294 283.206 122.953C282.337 123.612 281.751 124.377 281.431 125.285L275.716 124.466C276.16 122.882 276.906 121.565 277.953 120.478C278.982 119.41 280.26 118.61 281.751 118.075C283.259 117.541 284.91 117.274 286.721 117.274C287.981 117.274 289.223 117.417 290.465 117.719C291.708 118.022 292.844 118.502 293.873 119.179C294.903 119.856 295.719 120.764 296.358 121.921C296.979 123.078 297.299 124.52 297.299 126.247V143.692H291.406V140.114H291.211C290.838 140.844 290.324 141.521 289.649 142.144C288.975 142.767 288.14 143.283 287.129 143.657C286.082 144.031 284.91 144.209 283.544 144.209ZM285.141 139.705C286.366 139.705 287.431 139.456 288.336 138.975C289.241 138.477 289.933 137.836 290.43 137.017C290.927 136.198 291.158 135.308 291.158 134.346V131.267C290.962 131.427 290.643 131.569 290.182 131.712C289.72 131.854 289.223 131.961 288.655 132.068C288.087 132.175 287.537 132.264 286.987 132.335C286.436 132.406 285.957 132.477 285.549 132.531C284.644 132.655 283.81 132.851 283.1 133.136C282.372 133.421 281.804 133.812 281.396 134.311C280.97 134.809 280.775 135.468 280.775 136.251C280.775 137.391 281.183 138.245 282.017 138.815C282.816 139.42 283.863 139.705 285.141 139.705ZM299.162 143.692V117.63H305.108V121.974H305.374C305.854 120.461 306.67 119.304 307.823 118.485C308.977 117.666 310.308 117.256 311.799 117.256C312.136 117.256 312.527 117.274 312.935 117.292C313.361 117.328 313.716 117.363 314 117.417V123.06C313.734 122.971 313.326 122.882 312.775 122.811C312.24 122.741 311.7 122.705 311.16 122.704C310.042 122.704 309.048 122.953 308.161 123.434C307.273 123.914 306.581 124.573 306.067 125.428C305.552 126.282 305.303 127.261 305.303 128.365V143.692H299.162ZM149.169 110.527L147.43 137.925L130.8 102L149.169 110.527ZM137.651 145.953L125.085 153.146L112.519 145.953L115.074 139.74H135.095L137.651 145.953ZM125.085 115.636L131.669 131.694H118.5L125.085 115.636ZM102.722 137.925L101 110.527L119.37 102L102.722 137.925Z" fill="url(#paint1_radial_2313_2)"/>
</g>
<path d="M533 87H451V169H533V87Z" fill="#512BD4"/>
<path d="M465.615 139.389C465.035 139.389 464.542 139.195 464.137 138.809C463.731 138.413 463.528 137.942 463.528 137.397C463.528 136.842 463.731 136.367 464.137 135.97C464.542 135.574 465.035 135.376 465.615 135.376C466.205 135.376 466.702 135.574 467.108 135.97C467.524 136.367 467.731 136.842 467.731 137.397C467.731 137.942 467.524 138.413 467.108 138.809C466.702 139.195 466.205 139.389 465.615 139.389Z" fill="white"/>
<path d="M488.793 139.062H485.024L475.095 123.398C474.844 123.001 474.636 122.59 474.472 122.164H474.385C474.462 122.62 474.501 123.596 474.501 125.092V139.062H471.167V117.75H475.182L484.778 133.043C485.184 133.677 485.445 134.113 485.561 134.351H485.619C485.522 133.786 485.474 132.83 485.474 131.482V117.75H488.793V139.062Z" fill="white"/>
<path d="M505.028 139.062H493.36V117.75H504.564V120.752H496.81V126.786H503.956V129.773H496.81V136.075H505.028V139.062Z" fill="white"/>
<path d="M521.611 120.752H515.639V139.062H512.189V120.752H506.232V117.75H521.611V120.752Z" fill="white"/>
<rect x="389" y="185" width="210" height="126" rx="10" fill="url(#paint2_linear_2313_2)" stroke="#A4FFFF"/>
<rect x="102" y="185" width="210" height="126" rx="10" fill="url(#paint3_linear_2313_2)" stroke="#A4FFFF"/>
<path d="M406.69 211L403.27 198.814L404.962 198.274L407.806 209.182L410.488 199.714H412.63L415.294 209.182L418.12 198.328L419.704 198.814L416.302 211H414.178L411.514 201.532L408.814 211H406.69ZM424.62 211.216C423.276 211.216 422.208 210.79 421.416 209.938C420.636 209.074 420.246 207.868 420.246 206.32C420.246 205.384 420.42 204.55 420.768 203.818C421.128 203.074 421.626 202.492 422.262 202.072C422.898 201.64 423.636 201.424 424.476 201.424C425.376 201.424 426.12 201.622 426.708 202.018C427.308 202.402 427.758 202.924 428.058 203.584C428.358 204.244 428.508 204.97 428.508 205.762C428.508 206.182 428.49 206.59 428.454 206.986H421.902C422.01 207.862 422.316 208.546 422.82 209.038C423.324 209.53 423.99 209.776 424.818 209.776C425.358 209.776 425.844 209.722 426.276 209.614C426.708 209.494 427.122 209.344 427.518 209.164L427.896 210.55C427.464 210.742 426.978 210.898 426.438 211.018C425.898 211.15 425.292 211.216 424.62 211.216ZM421.884 205.672H427.014C427.014 204.76 426.786 204.058 426.33 203.566C425.874 203.074 425.244 202.828 424.44 202.828C423.744 202.828 423.168 203.074 422.712 203.566C422.256 204.046 421.98 204.748 421.884 205.672ZM434.879 211.216C434.339 211.216 433.829 211.12 433.349 210.928C432.881 210.724 432.491 210.49 432.179 210.226V211H430.667V197.68H432.287V202.612C432.527 202.336 432.875 202.072 433.331 201.82C433.799 201.556 434.351 201.424 434.987 201.424C435.707 201.424 436.379 201.616 437.003 202C437.639 202.372 438.149 202.918 438.533 203.638C438.917 204.346 439.109 205.21 439.109 206.23C439.109 206.974 438.989 207.652 438.749 208.264C438.509 208.876 438.185 209.404 437.777 209.848C437.381 210.28 436.931 210.616 436.427 210.856C435.923 211.096 435.407 211.216 434.879 211.216ZM434.447 209.776C435.035 209.776 435.551 209.632 435.995 209.344C436.451 209.056 436.805 208.648 437.057 208.12C437.321 207.592 437.453 206.98 437.453 206.284C437.453 205.564 437.321 204.946 437.057 204.43C436.805 203.914 436.463 203.518 436.031 203.242C435.611 202.966 435.143 202.828 434.627 202.828C434.111 202.828 433.643 202.96 433.223 203.224C432.815 203.476 432.503 203.752 432.287 204.052V209.056C432.563 209.272 432.887 209.446 433.259 209.578C433.631 209.71 434.027 209.776 434.447 209.776ZM455.589 211.18L454.185 207.58H448.353L446.949 211.144L445.491 210.55L450.423 198.4H452.295L457.155 210.55L455.589 211.18ZM448.893 206.14H453.627L451.269 200.092L448.893 206.14ZM458.954 211V198.436C459.446 198.376 459.986 198.334 460.574 198.31C461.174 198.274 461.792 198.256 462.428 198.256C463.472 198.256 464.36 198.424 465.092 198.76C465.824 199.084 466.382 199.534 466.766 200.11C467.15 200.686 467.342 201.346 467.342 202.09C467.342 202.99 467.12 203.752 466.676 204.376C466.232 205 465.614 205.48 464.822 205.816C464.03 206.14 463.112 206.302 462.068 206.302C461.564 206.302 461.096 206.284 460.664 206.248V211H458.954ZM462.284 204.88C463.352 204.88 464.18 204.64 464.768 204.16C465.356 203.68 465.65 203.038 465.65 202.234C465.65 201.454 465.368 200.836 464.804 200.38C464.24 199.924 463.436 199.696 462.392 199.696C462.068 199.696 461.762 199.702 461.474 199.714C461.186 199.726 460.916 199.744 460.664 199.768V204.79C460.856 204.814 461.09 204.838 461.366 204.862C461.642 204.874 461.948 204.88 462.284 204.88ZM469.413 211V198.4H471.123V211H469.413ZM475.45 211.216C475.126 211.216 474.844 211.096 474.604 210.856C474.364 210.616 474.244 210.334 474.244 210.01C474.244 209.638 474.352 209.344 474.568 209.128C474.784 208.912 475.078 208.804 475.45 208.804C475.762 208.804 476.038 208.924 476.278 209.164C476.53 209.404 476.656 209.686 476.656 210.01C476.656 210.37 476.542 210.664 476.314 210.892C476.086 211.108 475.798 211.216 475.45 211.216ZM479.766 211V198.4H482.034L487.596 208.876V198.4H489.216V211H486.984L481.386 200.596V211H479.766ZM492.458 211V198.4H500.018V199.876H494.168V203.71H499.208V205.15H494.168V209.524H500.018V211H492.458ZM504.872 211V199.912H501.002V198.4H510.452V199.912H506.582V211H504.872ZM522.489 211.216C521.397 211.216 520.431 210.958 519.591 210.442C518.751 209.914 518.097 209.17 517.629 208.21C517.161 207.238 516.927 206.086 516.927 204.754C516.927 203.47 517.161 202.336 517.629 201.352C518.109 200.356 518.781 199.582 519.645 199.03C520.521 198.466 521.541 198.184 522.705 198.184C523.305 198.184 523.851 198.244 524.343 198.364C524.835 198.472 525.297 198.628 525.729 198.832L525.207 200.272C524.835 200.092 524.451 199.948 524.055 199.84C523.671 199.732 523.215 199.678 522.687 199.678C521.919 199.678 521.229 199.876 520.617 200.272C520.017 200.668 519.543 201.238 519.195 201.982C518.847 202.726 518.673 203.626 518.673 204.682C518.673 205.69 518.841 206.572 519.177 207.328C519.525 208.084 519.999 208.672 520.599 209.092C521.211 209.512 521.907 209.722 522.687 209.722C523.275 209.722 523.785 209.65 524.217 209.506C524.649 209.362 525.069 209.176 525.477 208.948L525.999 210.37C525.555 210.61 525.045 210.814 524.469 210.982C523.905 211.138 523.245 211.216 522.489 211.216ZM531.552 211.216C530.664 211.216 529.866 211.012 529.158 210.604C528.45 210.184 527.892 209.608 527.484 208.876C527.088 208.132 526.89 207.28 526.89 206.32C526.89 205.312 527.094 204.442 527.502 203.71C527.91 202.978 528.468 202.414 529.176 202.018C529.884 201.622 530.676 201.424 531.552 201.424C532.428 201.424 533.214 201.622 533.91 202.018C534.618 202.414 535.176 202.978 535.584 203.71C536.004 204.43 536.214 205.288 536.214 206.284C536.214 207.28 536.01 208.15 535.602 208.894C535.194 209.626 534.636 210.196 533.928 210.604C533.232 211.012 532.44 211.216 531.552 211.216ZM531.552 209.776C532.5 209.776 533.238 209.458 533.766 208.822C534.294 208.174 534.558 207.34 534.558 206.32C534.558 205.696 534.426 205.126 534.162 204.61C533.898 204.082 533.538 203.662 533.082 203.35C532.638 203.026 532.128 202.864 531.552 202.864C530.604 202.864 529.866 203.176 529.338 203.8C528.81 204.424 528.546 205.252 528.546 206.284C528.546 206.908 528.678 207.49 528.942 208.03C529.206 208.558 529.56 208.984 530.004 209.308C530.46 209.62 530.976 209.776 531.552 209.776ZM538.368 211V201.64H539.934V203.674C540.09 203.278 540.3 202.912 540.564 202.576C540.828 202.228 541.158 201.952 541.554 201.748C541.95 201.532 542.412 201.424 542.94 201.424C543.12 201.424 543.3 201.436 543.48 201.46C543.66 201.472 543.81 201.496 543.93 201.532L543.444 203.206C543.216 203.11 542.946 203.062 542.634 203.062C542.19 203.062 541.764 203.188 541.356 203.44C540.96 203.692 540.63 204.082 540.366 204.61C540.114 205.138 539.988 205.81 539.988 206.626V211H538.368ZM548.756 211.216C547.412 211.216 546.344 210.79 545.552 209.938C544.772 209.074 544.382 207.868 544.382 206.32C544.382 205.384 544.556 204.55 544.904 203.818C545.264 203.074 545.762 202.492 546.398 202.072C547.034 201.64 547.772 201.424 548.612 201.424C549.512 201.424 550.256 201.622 550.844 202.018C551.444 202.402 551.894 202.924 552.194 203.584C552.494 204.244 552.644 204.97 552.644 205.762C552.644 206.182 552.626 206.59 552.59 206.986H546.038C546.146 207.862 546.452 208.546 546.956 209.038C547.46 209.53 548.126 209.776 548.954 209.776C549.494 209.776 549.98 209.722 550.412 209.614C550.844 209.494 551.258 209.344 551.654 209.164L552.032 210.55C551.6 210.742 551.114 210.898 550.574 211.018C550.034 211.15 549.428 211.216 548.756 211.216ZM546.02 205.672H551.15C551.15 204.76 550.922 204.058 550.466 203.566C550.01 203.074 549.38 202.828 548.576 202.828C547.88 202.828 547.304 203.074 546.848 203.566C546.392 204.046 546.116 204.748 546.02 205.672ZM561.352 211V209.56H563.926V200.47L561.514 202.288L560.632 201.082L564.358 198.4H565.546V209.56H567.688V211H561.352ZM574.935 211.216C573.531 211.216 572.463 210.646 571.731 209.506C570.999 208.354 570.633 206.746 570.633 204.682C570.633 202.606 571.005 201.004 571.749 199.876C572.505 198.748 573.579 198.184 574.971 198.184C576.375 198.184 577.443 198.754 578.175 199.894C578.907 201.034 579.273 202.642 579.273 204.718C579.273 206.794 578.895 208.396 578.139 209.524C577.395 210.652 576.327 211.216 574.935 211.216ZM574.953 209.74C575.493 209.74 575.955 209.584 576.339 209.272C576.735 208.948 577.035 208.42 577.239 207.688C577.455 206.956 577.563 205.972 577.563 204.736C577.563 203.08 577.329 201.82 576.861 200.956C576.405 200.092 575.769 199.66 574.953 199.66C574.413 199.66 573.945 199.822 573.549 200.146C573.165 200.458 572.865 200.98 572.649 201.712C572.445 202.432 572.343 203.416 572.343 204.664C572.343 206.32 572.571 207.58 573.027 208.444C573.495 209.308 574.137 209.74 574.953 209.74Z" fill="white" fill-opacity="0.8"/>
<path d="M130.278 211.18L128.874 207.58H123.042L121.638 211.144L120.18 210.55L125.112 198.4H126.984L131.844 210.55L130.278 211.18ZM123.582 206.14H128.316L125.958 200.092L123.582 206.14ZM133.463 211V201.64H135.029V203.206C135.365 202.702 135.791 202.282 136.307 201.946C136.835 201.598 137.459 201.424 138.179 201.424C139.235 201.424 140.021 201.742 140.537 202.378C141.065 203.014 141.329 203.854 141.329 204.898V211H139.709V205.078C139.709 204.406 139.547 203.866 139.223 203.458C138.911 203.05 138.473 202.846 137.909 202.846C137.357 202.846 136.835 203.044 136.343 203.44C135.851 203.824 135.431 204.28 135.083 204.808V211H133.463ZM147.554 215.176C147.002 215.176 146.462 215.11 145.934 214.978C145.418 214.846 144.956 214.648 144.548 214.384L145.142 212.98C145.43 213.208 145.766 213.394 146.15 213.538C146.534 213.694 147.002 213.772 147.554 213.772C148.406 213.772 149.072 213.544 149.552 213.088C150.044 212.644 150.29 211.93 150.29 210.946V209.794C150.05 210.082 149.702 210.358 149.246 210.622C148.802 210.874 148.268 211 147.644 211C146.936 211 146.264 210.82 145.628 210.46C144.992 210.088 144.476 209.548 144.08 208.84C143.684 208.132 143.486 207.28 143.486 206.284C143.486 205.348 143.678 204.514 144.062 203.782C144.458 203.05 144.986 202.474 145.646 202.054C146.306 201.634 147.032 201.424 147.824 201.424C148.352 201.424 148.832 201.514 149.264 201.694C149.696 201.874 150.068 202.096 150.38 202.36V201.64H151.856V210.784C151.856 211.816 151.676 212.656 151.316 213.304C150.956 213.952 150.452 214.426 149.804 214.726C149.168 215.026 148.418 215.176 147.554 215.176ZM148.004 209.56C148.484 209.56 148.916 209.452 149.3 209.236C149.684 209.02 149.996 208.768 150.236 208.48V203.584C149.972 203.392 149.654 203.218 149.282 203.062C148.91 202.906 148.478 202.828 147.986 202.828C147.494 202.828 147.032 202.96 146.6 203.224C146.168 203.488 145.814 203.872 145.538 204.376C145.274 204.868 145.142 205.474 145.142 206.194C145.142 206.878 145.274 207.472 145.538 207.976C145.814 208.48 146.168 208.87 146.6 209.146C147.032 209.422 147.5 209.56 148.004 209.56ZM157.705 211.216C157.165 211.216 156.655 211.102 156.175 210.874C155.695 210.646 155.305 210.28 155.005 209.776C154.705 209.26 154.555 208.576 154.555 207.724V201.64H156.175V207.508C156.175 208.24 156.331 208.804 156.643 209.2C156.955 209.584 157.411 209.776 158.011 209.776C158.503 209.776 158.977 209.68 159.433 209.488C159.901 209.284 160.315 209.014 160.675 208.678V201.64H162.295V208.57C162.295 209.086 162.403 209.428 162.619 209.596C162.847 209.752 163.093 209.83 163.357 209.83L163.015 211.09C161.899 211.09 161.209 210.646 160.945 209.758C160.525 210.19 160.039 210.544 159.487 210.82C158.935 211.084 158.341 211.216 157.705 211.216ZM168.352 211.216C167.8 211.216 167.302 211.114 166.858 210.91C166.414 210.694 166.06 210.352 165.796 209.884C165.544 209.416 165.418 208.81 165.418 208.066V197.68H167.038V207.904C167.038 208.552 167.17 209.032 167.434 209.344C167.71 209.656 168.088 209.812 168.568 209.812C168.796 209.812 169.018 209.788 169.234 209.74C169.462 209.68 169.654 209.614 169.81 209.542L170.206 210.856C169.99 210.952 169.72 211.036 169.396 211.108C169.084 211.18 168.736 211.216 168.352 211.216ZM175.049 211.216C174.269 211.216 173.561 211.018 172.925 210.622C172.289 210.226 171.779 209.668 171.395 208.948C171.023 208.216 170.837 207.358 170.837 206.374C170.837 205.438 171.023 204.598 171.395 203.854C171.779 203.11 172.301 202.522 172.961 202.09C173.633 201.646 174.401 201.424 175.265 201.424C175.805 201.424 176.291 201.52 176.723 201.712C177.167 201.892 177.551 202.12 177.875 202.396V201.64H179.351V208.732C179.351 209.188 179.459 209.488 179.675 209.632C179.903 209.764 180.149 209.83 180.413 209.83L180.071 211.09C178.919 211.09 178.223 210.622 177.983 209.686C177.707 210.07 177.329 210.424 176.849 210.748C176.381 211.06 175.781 211.216 175.049 211.216ZM175.409 209.776C175.865 209.776 176.297 209.668 176.705 209.452C177.113 209.224 177.455 208.942 177.731 208.606V203.584C177.407 203.356 177.047 203.176 176.651 203.044C176.267 202.9 175.859 202.828 175.427 202.828C174.851 202.828 174.341 202.978 173.897 203.278C173.465 203.566 173.123 203.974 172.871 204.502C172.619 205.018 172.493 205.624 172.493 206.32C172.493 206.992 172.619 207.592 172.871 208.12C173.123 208.636 173.471 209.044 173.915 209.344C174.359 209.632 174.857 209.776 175.409 209.776ZM182.577 211V201.64H184.143V203.674C184.299 203.278 184.509 202.912 184.773 202.576C185.037 202.228 185.367 201.952 185.763 201.748C186.159 201.532 186.621 201.424 187.149 201.424C187.329 201.424 187.509 201.436 187.689 201.46C187.869 201.472 188.019 201.496 188.139 201.532L187.653 203.206C187.425 203.11 187.155 203.062 186.843 203.062C186.399 203.062 185.973 203.188 185.565 203.44C185.169 203.692 184.839 204.082 184.575 204.61C184.323 205.138 184.197 205.81 184.197 206.626V211H182.577ZM195.307 211C195.271 210.784 195.253 210.562 195.253 210.334C195.253 209.554 195.385 208.858 195.649 208.246C195.925 207.622 196.279 207.058 196.711 206.554C197.143 206.038 197.599 205.564 198.079 205.132C198.571 204.688 199.027 204.268 199.447 203.872C199.879 203.464 200.233 203.056 200.509 202.648C200.785 202.24 200.923 201.814 200.923 201.37C200.923 200.866 200.737 200.452 200.365 200.128C199.993 199.792 199.513 199.624 198.925 199.624C198.421 199.624 197.959 199.726 197.539 199.93C197.131 200.122 196.747 200.386 196.387 200.722L195.487 199.624C195.967 199.192 196.495 198.844 197.071 198.58C197.659 198.316 198.337 198.184 199.105 198.184C199.813 198.184 200.431 198.322 200.959 198.598C201.487 198.862 201.895 199.228 202.183 199.696C202.483 200.164 202.633 200.686 202.633 201.262C202.633 201.838 202.507 202.372 202.255 202.864C202.003 203.356 201.679 203.818 201.283 204.25C200.887 204.682 200.461 205.102 200.005 205.51C199.549 205.906 199.111 206.314 198.691 206.734C198.271 207.154 197.911 207.592 197.611 208.048C197.323 208.504 197.143 208.996 197.071 209.524H202.615V211H195.307ZM207.108 211V209.56H209.682V200.47L207.27 202.288L206.388 201.082L210.114 198.4H211.302V209.56H213.444V211H207.108Z" fill="white" fill-opacity="0.8"/>
<path d="M90.26 74V64.2H96.07V65.348H91.59V68.344H95.328V69.436H91.59V74H90.26ZM97.6122 74V66.72H98.8302V68.302C98.9515 67.994 99.1149 67.7093 99.3202 67.448C99.5255 67.1773 99.7822 66.9627 100.09 66.804C100.398 66.636 100.758 66.552 101.168 66.552C101.308 66.552 101.448 66.5613 101.588 66.58C101.728 66.5893 101.845 66.608 101.938 66.636L101.56 67.938C101.383 67.8633 101.173 67.826 100.93 67.826C100.585 67.826 100.254 67.924 99.9362 68.12C99.6282 68.316 99.3715 68.6193 99.1662 69.03C98.9702 69.4407 98.8722 69.9633 98.8722 70.598V74H97.6122ZM105.846 74.168C105.155 74.168 104.535 74.0093 103.984 73.692C103.433 73.3653 102.999 72.9173 102.682 72.348C102.374 71.7693 102.22 71.1067 102.22 70.36C102.22 69.576 102.379 68.8993 102.696 68.33C103.013 67.7607 103.447 67.322 103.998 67.014C104.549 66.706 105.165 66.552 105.846 66.552C106.527 66.552 107.139 66.706 107.68 67.014C108.231 67.322 108.665 67.7607 108.982 68.33C109.309 68.89 109.472 69.5573 109.472 70.332C109.472 71.1067 109.313 71.7833 108.996 72.362C108.679 72.9313 108.245 73.3747 107.694 73.692C107.153 74.0093 106.537 74.168 105.846 74.168ZM105.846 73.048C106.583 73.048 107.157 72.8007 107.568 72.306C107.979 71.802 108.184 71.1533 108.184 70.36C108.184 69.8747 108.081 69.4313 107.876 69.03C107.671 68.6193 107.391 68.2927 107.036 68.05C106.691 67.798 106.294 67.672 105.846 67.672C105.109 67.672 104.535 67.9147 104.124 68.4C103.713 68.8853 103.508 69.5293 103.508 70.332C103.508 70.8173 103.611 71.27 103.816 71.69C104.021 72.1007 104.297 72.432 104.642 72.684C104.997 72.9267 105.398 73.048 105.846 73.048ZM111.147 74V66.72H112.365V67.938C112.627 67.546 112.958 67.2193 113.359 66.958C113.77 66.6873 114.255 66.552 114.815 66.552C115.637 66.552 116.248 66.7993 116.649 67.294C117.06 67.7887 117.265 68.442 117.265 69.254V74H116.005V69.394C116.005 68.8713 115.879 68.4513 115.627 68.134C115.385 67.8167 115.044 67.658 114.605 67.658C114.176 67.658 113.77 67.812 113.387 68.12C113.005 68.4187 112.678 68.7733 112.407 69.184V74H111.147ZM121.981 74.168C121.281 74.168 120.725 73.9393 120.315 73.482C119.913 73.0153 119.713 72.3527 119.713 71.494V68.078H118.453V66.986H119.741L120.007 64.69H120.973V66.986H122.989V68.078H120.973V71.592C120.973 72.1333 121.085 72.5113 121.309 72.726C121.542 72.9407 121.817 73.048 122.135 73.048C122.368 73.048 122.587 73.0107 122.793 72.936C123.007 72.8613 123.203 72.7727 123.381 72.67L123.731 73.678C123.544 73.79 123.292 73.8973 122.975 74C122.657 74.112 122.326 74.168 121.981 74.168ZM127.636 74.168C126.59 74.168 125.76 73.8367 125.144 73.174C124.537 72.502 124.234 71.564 124.234 70.36C124.234 69.632 124.369 68.9833 124.64 68.414C124.92 67.8353 125.307 67.3827 125.802 67.056C126.296 66.72 126.87 66.552 127.524 66.552C128.224 66.552 128.802 66.706 129.26 67.014C129.726 67.3127 130.076 67.7187 130.31 68.232C130.543 68.7453 130.66 69.31 130.66 69.926C130.66 70.2527 130.646 70.57 130.618 70.878H125.522C125.606 71.5593 125.844 72.0913 126.236 72.474C126.628 72.8567 127.146 73.048 127.79 73.048C128.21 73.048 128.588 73.006 128.924 72.922C129.26 72.8287 129.582 72.712 129.89 72.572L130.184 73.65C129.848 73.7993 129.47 73.9207 129.05 74.014C128.63 74.1167 128.158 74.168 127.636 74.168ZM125.508 69.856H129.498C129.498 69.1467 129.32 68.6007 128.966 68.218C128.611 67.8353 128.121 67.644 127.496 67.644C126.954 67.644 126.506 67.8353 126.152 68.218C125.797 68.5913 125.582 69.1373 125.508 69.856ZM132.339 74V66.72H133.557V67.938C133.818 67.546 134.149 67.2193 134.551 66.958C134.961 66.6873 135.447 66.552 136.007 66.552C136.828 66.552 137.439 66.7993 137.841 67.294C138.251 67.7887 138.457 68.442 138.457 69.254V74H137.197V69.394C137.197 68.8713 137.071 68.4513 136.819 68.134C136.576 67.8167 136.235 67.658 135.797 67.658C135.367 67.658 134.961 67.812 134.579 68.12C134.196 68.4187 133.869 68.7733 133.599 69.184V74H132.339ZM143.382 74.168C142.785 74.168 142.239 74.014 141.744 73.706C141.249 73.398 140.857 72.964 140.568 72.404C140.279 71.8347 140.134 71.1673 140.134 70.402C140.134 69.6647 140.279 69.0067 140.568 68.428C140.867 67.8493 141.259 67.392 141.744 67.056C142.239 66.72 142.78 66.552 143.368 66.552C143.853 66.552 144.269 66.65 144.614 66.846C144.969 67.042 145.244 67.2427 145.44 67.448V63.64H146.7V72.236C146.7 72.5907 146.784 72.824 146.952 72.936C147.129 73.0387 147.321 73.09 147.526 73.09L147.26 74.07C146.373 74.07 145.832 73.7153 145.636 73.006C145.431 73.2953 145.141 73.5613 144.768 73.804C144.404 74.0467 143.942 74.168 143.382 74.168ZM143.662 73.048C144.007 73.048 144.334 72.9687 144.642 72.81C144.959 72.642 145.225 72.4273 145.44 72.166V68.554C145.263 68.33 145.015 68.1247 144.698 67.938C144.381 67.742 144.031 67.644 143.648 67.644C143.2 67.644 142.808 67.7653 142.472 68.008C142.136 68.2507 141.875 68.5773 141.688 68.988C141.511 69.3893 141.422 69.8467 141.422 70.36C141.422 70.8733 141.52 71.3353 141.716 71.746C141.912 72.1473 142.178 72.4647 142.514 72.698C142.859 72.9313 143.242 73.048 143.662 73.048Z" fill="#A4FFFF" fill-opacity="0.8"/>
<path d="M373.088 75.112C372.519 75.112 371.977 75.098 371.464 75.07C370.96 75.042 370.559 75.0093 370.26 74.972V65.228C370.587 65.1907 370.993 65.158 371.478 65.13C371.963 65.102 372.519 65.088 373.144 65.088C374.339 65.088 375.258 65.3167 375.902 65.774C376.546 66.222 376.868 66.8333 376.868 67.608C376.868 68.1213 376.728 68.56 376.448 68.924C376.177 69.2787 375.781 69.5727 375.258 69.806C375.893 70.03 376.373 70.3427 376.7 70.744C377.027 71.136 377.19 71.6213 377.19 72.2C377.19 73.0867 376.84 73.796 376.14 74.328C375.44 74.8507 374.423 75.112 373.088 75.112ZM371.59 69.428H373.13C373.867 69.428 374.451 69.274 374.88 68.966C375.319 68.658 375.538 68.2613 375.538 67.776C375.538 67.2533 375.323 66.8567 374.894 66.586C374.465 66.306 373.877 66.166 373.13 66.166C372.822 66.166 372.542 66.1753 372.29 66.194C372.038 66.2033 371.805 66.2173 371.59 66.236V69.428ZM373.186 74.006C374.017 74.006 374.665 73.8567 375.132 73.558C375.599 73.2593 375.832 72.8253 375.832 72.256C375.832 71.696 375.603 71.2573 375.146 70.94C374.689 70.6227 374.035 70.464 373.186 70.464H371.59V73.922C372.085 73.978 372.617 74.006 373.186 74.006ZM381.724 75.168C381.118 75.168 380.567 75.014 380.072 74.706C379.578 74.398 379.181 73.964 378.882 73.404C378.593 72.8347 378.448 72.1673 378.448 71.402C378.448 70.674 378.593 70.0207 378.882 69.442C379.181 68.8633 379.587 68.406 380.1 68.07C380.623 67.7247 381.22 67.552 381.892 67.552C382.312 67.552 382.69 67.6267 383.026 67.776C383.372 67.916 383.67 68.0933 383.922 68.308V67.72H385.07V73.236C385.07 73.5907 385.154 73.824 385.322 73.936C385.5 74.0387 385.691 74.09 385.896 74.09L385.63 75.07C384.734 75.07 384.193 74.706 384.006 73.978C383.792 74.2767 383.498 74.552 383.124 74.804C382.76 75.0467 382.294 75.168 381.724 75.168ZM382.004 74.048C382.359 74.048 382.695 73.964 383.012 73.796C383.33 73.6187 383.596 73.3993 383.81 73.138V69.232C383.558 69.0547 383.278 68.9147 382.97 68.812C382.672 68.7 382.354 68.644 382.018 68.644C381.57 68.644 381.174 68.7607 380.828 68.994C380.492 69.218 380.226 69.5353 380.03 69.946C379.834 70.3473 379.736 70.8187 379.736 71.36C379.736 71.8827 379.834 72.3493 380.03 72.76C380.226 73.1613 380.497 73.4787 380.842 73.712C381.188 73.936 381.575 74.048 382.004 74.048ZM390.382 75.168C389.692 75.168 389.085 75.0093 388.562 74.692C388.049 74.3653 387.652 73.9173 387.372 73.348C387.092 72.7693 386.952 72.1067 386.952 71.36C386.952 70.66 387.092 70.0207 387.372 69.442C387.662 68.8633 388.072 68.406 388.604 68.07C389.136 67.7247 389.762 67.552 390.48 67.552C390.891 67.552 391.25 67.5893 391.558 67.664C391.876 67.7387 392.179 67.846 392.468 67.986L392.09 69.05C391.829 68.9193 391.577 68.826 391.334 68.77C391.101 68.7047 390.84 68.672 390.55 68.672C389.897 68.672 389.346 68.91 388.898 69.386C388.46 69.8527 388.24 70.5013 388.24 71.332C388.24 71.836 388.334 72.2933 388.52 72.704C388.707 73.1147 388.964 73.4413 389.29 73.684C389.626 73.9267 390.018 74.048 390.466 74.048C390.821 74.048 391.124 74.0107 391.376 73.936C391.628 73.852 391.899 73.7353 392.188 73.586L392.58 74.65C392.291 74.8087 391.964 74.9347 391.6 75.028C391.246 75.1213 390.84 75.168 390.382 75.168ZM399.072 75.14L395.306 71.262V75H394.046V64.64H395.306V70.562L398.596 67.58L399.324 68.378L396.51 70.87L399.94 74.3L399.072 75.14ZM403.903 75.168C402.858 75.168 402.027 74.8367 401.411 74.174C400.804 73.502 400.501 72.564 400.501 71.36C400.501 70.632 400.636 69.9833 400.907 69.414C401.187 68.8353 401.574 68.3827 402.069 68.056C402.564 67.72 403.138 67.552 403.791 67.552C404.491 67.552 405.07 67.706 405.527 68.014C405.994 68.3127 406.344 68.7187 406.577 69.232C406.81 69.7453 406.927 70.31 406.927 70.926C406.927 71.2527 406.913 71.57 406.885 71.878H401.789C401.873 72.5593 402.111 73.0913 402.503 73.474C402.895 73.8567 403.413 74.048 404.057 74.048C404.477 74.048 404.855 74.006 405.191 73.922C405.527 73.8287 405.849 73.712 406.157 73.572L406.451 74.65C406.115 74.7993 405.737 74.9207 405.317 75.014C404.897 75.1167 404.426 75.168 403.903 75.168ZM401.775 70.856H405.765C405.765 70.1467 405.588 69.6007 405.233 69.218C404.878 68.8353 404.388 68.644 403.763 68.644C403.222 68.644 402.774 68.8353 402.419 69.218C402.064 69.5913 401.85 70.1373 401.775 70.856ZM408.606 75V67.72H409.824V68.938C410.086 68.546 410.417 68.2193 410.818 67.958C411.229 67.6873 411.714 67.552 412.274 67.552C413.096 67.552 413.707 67.7993 414.108 68.294C414.519 68.7887 414.724 69.442 414.724 70.254V75H413.464V70.394C413.464 69.8713 413.338 69.4513 413.086 69.134C412.844 68.8167 412.503 68.658 412.064 68.658C411.635 68.658 411.229 68.812 410.846 69.12C410.464 69.4187 410.137 69.7733 409.866 70.184V75H408.606ZM419.649 75.168C419.052 75.168 418.506 75.014 418.011 74.706C417.517 74.398 417.125 73.964 416.835 73.404C416.546 72.8347 416.401 72.1673 416.401 71.402C416.401 70.6647 416.546 70.0067 416.835 69.428C417.134 68.8493 417.526 68.392 418.011 68.056C418.506 67.72 419.047 67.552 419.635 67.552C420.121 67.552 420.536 67.65 420.881 67.846C421.236 68.042 421.511 68.2427 421.707 68.448V64.64H422.967V73.236C422.967 73.5907 423.051 73.824 423.219 73.936C423.397 74.0387 423.588 74.09 423.793 74.09L423.527 75.07C422.641 75.07 422.099 74.7153 421.903 74.006C421.698 74.2953 421.409 74.5613 421.035 74.804C420.671 75.0467 420.209 75.168 419.649 75.168ZM419.929 74.048C420.275 74.048 420.601 73.9687 420.909 73.81C421.227 73.642 421.493 73.4273 421.707 73.166V69.554C421.53 69.33 421.283 69.1247 420.965 68.938C420.648 68.742 420.298 68.644 419.915 68.644C419.467 68.644 419.075 68.7653 418.739 69.008C418.403 69.2507 418.142 69.5773 417.955 69.988C417.778 70.3893 417.689 70.8467 417.689 71.36C417.689 71.8733 417.787 72.3353 417.983 72.746C418.179 73.1473 418.445 73.4647 418.781 73.698C419.127 73.9313 419.509 74.048 419.929 74.048Z" fill="#A4FFFF" fill-opacity="0.8"/>
<path d="M406.324 274.502L292.875 274.471" stroke="#D8FC73" stroke-linecap="round" stroke-linejoin="round"/>
<path d="M291.46 271.04C289.549 271.04 288 272.589 288 274.5C288 276.411 289.549 277.96 291.46 277.96C293.371 277.96 294.921 276.411 294.921 274.5C294.921 272.589 293.371 271.04 291.46 271.04Z" fill="#233345" stroke="#D8FC73"/>
<path d="M400.239 283L407 274.5L400.239 266" stroke="#D8FC73" stroke-linecap="round" stroke-linejoin="round"/>
<path d="M263.566 229.427H436.894C445.49 229.427 452.459 236.397 452.459 244.994C452.459 253.591 445.49 260.56 436.894 260.56H263.566C254.97 260.56 248 253.591 248 244.994C248 236.397 254.969 229.427 263.566 229.427Z" stroke="#A4FFFF" stroke-width="1.01426"/>
<path d="M263.566 229.427H436.894C445.49 229.427 452.459 236.397 452.459 244.994C452.459 253.591 445.49 260.56 436.894 260.56H263.566C254.97 260.56 248 253.591 248 244.994C248 236.397 254.969 229.427 263.566 229.427Z" fill="#182534"/>
<path d="M284.421 251.216C283.869 251.216 283.347 251.12 282.855 250.928C282.375 250.736 281.973 250.484 281.649 250.172L282.477 248.858C282.717 249.11 283.005 249.32 283.341 249.488C283.677 249.656 284.019 249.74 284.367 249.74C284.943 249.74 285.399 249.536 285.735 249.128C286.071 248.708 286.239 248.006 286.239 247.022V238.4H287.949V246.842C287.949 248.366 287.625 249.476 286.977 250.172C286.329 250.868 285.477 251.216 284.421 251.216ZM294.135 251.216C293.259 251.216 292.461 251.102 291.741 250.874C291.021 250.634 290.415 250.322 289.923 249.938L290.787 248.498C291.219 248.858 291.705 249.152 292.245 249.38C292.785 249.608 293.415 249.722 294.135 249.722C294.999 249.722 295.683 249.542 296.187 249.182C296.691 248.822 296.943 248.336 296.943 247.724C296.943 247.376 296.871 247.07 296.727 246.806C296.583 246.53 296.301 246.266 295.881 246.014C295.473 245.75 294.867 245.468 294.063 245.168C293.199 244.832 292.509 244.496 291.993 244.16C291.477 243.812 291.105 243.422 290.877 242.99C290.661 242.546 290.553 242.024 290.553 241.424C290.553 240.824 290.715 240.284 291.039 239.804C291.375 239.312 291.861 238.922 292.497 238.634C293.145 238.334 293.925 238.184 294.837 238.184C295.581 238.184 296.247 238.262 296.835 238.418C297.435 238.562 298.017 238.772 298.581 239.048L297.951 240.506C297.543 240.266 297.063 240.068 296.511 239.912C295.971 239.744 295.401 239.66 294.801 239.66C294.009 239.66 293.385 239.816 292.929 240.128C292.473 240.44 292.245 240.842 292.245 241.334C292.245 241.646 292.311 241.922 292.443 242.162C292.575 242.402 292.833 242.636 293.217 242.864C293.613 243.092 294.201 243.35 294.981 243.638C295.917 243.986 296.655 244.352 297.195 244.736C297.747 245.12 298.137 245.54 298.365 245.996C298.593 246.44 298.707 246.95 298.707 247.526C298.707 248.306 298.509 248.972 298.113 249.524C297.729 250.076 297.189 250.496 296.493 250.784C295.809 251.072 295.023 251.216 294.135 251.216ZM306.454 251.216C305.518 251.216 304.684 251.048 303.952 250.712C303.22 250.364 302.596 249.896 302.08 249.308C301.576 248.708 301.186 248.012 300.91 247.22C300.646 246.428 300.514 245.582 300.514 244.682C300.514 243.446 300.748 242.342 301.216 241.37C301.696 240.386 302.38 239.612 303.268 239.048C304.156 238.472 305.218 238.184 306.454 238.184C307.378 238.184 308.206 238.352 308.938 238.688C309.682 239.024 310.312 239.492 310.828 240.092C311.344 240.692 311.734 241.382 311.998 242.162C312.274 242.942 312.412 243.782 312.412 244.682C312.412 245.582 312.274 246.428 311.998 247.22C311.734 248.012 311.344 248.708 310.828 249.308C310.312 249.896 309.688 250.364 308.956 250.712C308.224 251.048 307.39 251.216 306.454 251.216ZM306.454 249.74C307.378 249.74 308.152 249.518 308.776 249.074C309.4 248.63 309.868 248.03 310.18 247.274C310.504 246.506 310.666 245.642 310.666 244.682C310.666 244.034 310.57 243.41 310.378 242.81C310.186 242.21 309.91 241.676 309.55 241.208C309.19 240.728 308.746 240.35 308.218 240.074C307.702 239.798 307.114 239.66 306.454 239.66C305.578 239.66 304.822 239.882 304.186 240.326C303.562 240.77 303.082 241.37 302.746 242.126C302.422 242.882 302.26 243.734 302.26 244.682C302.26 245.33 302.35 245.96 302.53 246.572C302.722 247.172 302.998 247.712 303.358 248.192C303.718 248.672 304.156 249.05 304.672 249.326C305.2 249.602 305.794 249.74 306.454 249.74ZM314.927 251V238.4H317.195L322.757 248.876V238.4H324.377V251H322.145L316.547 240.596V251H314.927ZM335.085 251L331.665 238.814L333.357 238.274L336.201 249.182L338.883 239.714H341.025L343.689 249.182L346.515 238.328L348.099 238.814L344.697 251H342.573L339.909 241.532L337.209 251H335.085ZM349.995 251V238.4H357.555V239.876H351.705V243.71H356.745V245.15H351.705V249.524H357.555V251H349.995ZM363.616 251.144C362.884 251.144 362.188 251.126 361.528 251.09C360.88 251.054 360.364 251.012 359.98 250.964V238.436C360.4 238.388 360.922 238.346 361.546 238.31C362.17 238.274 362.884 238.256 363.688 238.256C365.224 238.256 366.406 238.55 367.234 239.138C368.062 239.714 368.476 240.5 368.476 241.496C368.476 242.156 368.296 242.72 367.936 243.188C367.588 243.644 367.078 244.022 366.406 244.322C367.222 244.61 367.84 245.012 368.26 245.528C368.68 246.032 368.89 246.656 368.89 247.4C368.89 248.54 368.44 249.452 367.54 250.136C366.64 250.808 365.332 251.144 363.616 251.144ZM361.69 243.836H363.67C364.618 243.836 365.368 243.638 365.92 243.242C366.484 242.846 366.766 242.336 366.766 241.712C366.766 241.04 366.49 240.53 365.938 240.182C365.386 239.822 364.63 239.642 363.67 239.642C363.274 239.642 362.914 239.654 362.59 239.678C362.266 239.69 361.966 239.708 361.69 239.732V243.836ZM363.742 249.722C364.81 249.722 365.644 249.53 366.244 249.146C366.844 248.762 367.144 248.204 367.144 247.472C367.144 246.752 366.85 246.188 366.262 245.78C365.674 245.372 364.834 245.168 363.742 245.168H361.69V249.614C362.326 249.686 363.01 249.722 363.742 249.722ZM379.144 251V239.912H375.274V238.4H384.724V239.912H380.854V251H379.144ZM388.755 251.216C387.867 251.216 387.069 251.012 386.361 250.604C385.653 250.184 385.095 249.608 384.687 248.876C384.291 248.132 384.093 247.28 384.093 246.32C384.093 245.312 384.297 244.442 384.705 243.71C385.113 242.978 385.671 242.414 386.379 242.018C387.087 241.622 387.879 241.424 388.755 241.424C389.631 241.424 390.417 241.622 391.113 242.018C391.821 242.414 392.379 242.978 392.787 243.71C393.207 244.43 393.417 245.288 393.417 246.284C393.417 247.28 393.213 248.15 392.805 248.894C392.397 249.626 391.839 250.196 391.131 250.604C390.435 251.012 389.643 251.216 388.755 251.216ZM388.755 249.776C389.703 249.776 390.441 249.458 390.969 248.822C391.497 248.174 391.761 247.34 391.761 246.32C391.761 245.696 391.629 245.126 391.365 244.61C391.101 244.082 390.741 243.662 390.285 243.35C389.841 243.026 389.331 242.864 388.755 242.864C387.807 242.864 387.069 243.176 386.541 243.8C386.013 244.424 385.749 245.252 385.749 246.284C385.749 246.908 385.881 247.49 386.145 248.03C386.409 248.558 386.763 248.984 387.207 249.308C387.663 249.62 388.179 249.776 388.755 249.776ZM402.033 251.18L397.191 246.194V251H395.571V237.68H397.191V245.294L401.421 241.46L402.357 242.486L398.739 245.69L403.149 250.1L402.033 251.18ZM408.245 251.216C406.901 251.216 405.833 250.79 405.041 249.938C404.261 249.074 403.871 247.868 403.871 246.32C403.871 245.384 404.045 244.55 404.393 243.818C404.753 243.074 405.251 242.492 405.887 242.072C406.523 241.64 407.261 241.424 408.101 241.424C409.001 241.424 409.745 241.622 410.333 242.018C410.933 242.402 411.383 242.924 411.683 243.584C411.983 244.244 412.133 244.97 412.133 245.762C412.133 246.182 412.115 246.59 412.079 246.986H405.527C405.635 247.862 405.941 248.546 406.445 249.038C406.949 249.53 407.615 249.776 408.443 249.776C408.983 249.776 409.469 249.722 409.901 249.614C410.333 249.494 410.747 249.344 411.143 249.164L411.521 250.55C411.089 250.742 410.603 250.898 410.063 251.018C409.523 251.15 408.917 251.216 408.245 251.216ZM405.509 245.672H410.639C410.639 244.76 410.411 244.058 409.955 243.566C409.499 243.074 408.869 242.828 408.065 242.828C407.369 242.828 406.793 243.074 406.337 243.566C405.881 244.046 405.605 244.748 405.509 245.672ZM414.292 251V241.64H415.858V243.206C416.194 242.702 416.62 242.282 417.136 241.946C417.664 241.598 418.288 241.424 419.008 241.424C420.064 241.424 420.85 241.742 421.366 242.378C421.894 243.014 422.158 243.854 422.158 244.898V251H420.538V245.078C420.538 244.406 420.376 243.866 420.052 243.458C419.74 243.05 419.302 242.846 418.738 242.846C418.186 242.846 417.664 243.044 417.172 243.44C416.68 243.824 416.26 244.28 415.912 244.808V251H414.292Z" fill="#A4FFFF" fill-opacity="0.8"/>
<defs>
<linearGradient id="paint0_linear_2313_2" x1="101" y1="143.774" x2="314" y2="143.774" gradientUnits="userSpaceOnUse">
<stop stop-color="#F0070C"/>
<stop offset="0.526" stop-color="#CC26D5"/>
<stop offset="1" stop-color="#7702FF"/>
</linearGradient>
<radialGradient id="paint1_radial_2313_2" cx="0" cy="0" r="1" gradientTransform="matrix(-21.04 39.4894 -39.368 -21.1048 167.264 88.6191)" gradientUnits="userSpaceOnUse">
<stop stop-color="#FF41F8"/>
<stop offset="0.707" stop-color="#FF41F8" stop-opacity="0.5"/>
<stop offset="1" stop-color="#FF41F8" stop-opacity="0"/>
</radialGradient>
<linearGradient id="paint2_linear_2313_2" x1="599" y1="248" x2="389" y2="248" gradientUnits="userSpaceOnUse">
<stop offset="0.807692" stop-color="#233345"/>
</linearGradient>
<linearGradient id="paint3_linear_2313_2" x1="312" y1="248" x2="102" y2="248" gradientUnits="userSpaceOnUse">
<stop offset="0.807692" stop-color="#233345"/>
</linearGradient>
</defs>
</svg>
